<svg id="Capa_1" data-name="Capa 1" xmlns="http://www.w3.org/2000/svg" viewBox="0 0 309.67 397.66" class=""><defs><style>.cls-1{opacity:0.6;}.cls-2{fill:none;stroke:#fff;stroke-miterlimit:10;}.cls-3{isolation:isolate;}</style></defs><title>portafolio (1)</title><g class="cls-1"><path class="cls-2 sDaQaPcv_0" d="M3599,875.77H3496.87l-7.07-8.46h119.38Zm-101.17-2.12h100.4l5.05-4.21h-109Z" transform="translate(-3396.96 -697.32)"></path><path class="cls-2 sDaQaPcv_1" d="M3614.71,940.32L3603,928l1.55-1.45,0.41,0.44,10,10.46,19.41-16.29-34.73-41.33h0l-0.17-.19V879.2h0.53l-0.6-.71,1.16-1,0.71,0.93h0l0.11,0.13,3.28,3.88,32.7,38.94Z" transform="translate(-3396.96 -697.32)"></path><path class="cls-2 sDaQaPcv_2" d="M3632.19,994.21h-1l-15.45-2.35-0.13-3.67-1.94-48,26.25-8.73ZM3617.84,990l12.48,1.91,0.3-2.5,6.8-54.89-21.54,7.17Z" transform="translate(-3396.96 -697.32)"></path><path class="cls-2 sDaQaPcv_3" d="M3633.93,999.56l-20.72-4v-9.36l20.72,4v9.35Zm-18.6-5.76L3631.8,997v-5l-16.47-3.19v5Z" transform="translate(-3396.96 -697.32)"></path><path class="cls-2 sDaQaPcv_4" d="M3625.88,1019.21a5.25,5.25,0,0,1-4.71-2.9,5.31,5.31,0,0,1,2.35-7.08,5.41,5.41,0,0,0,3-4.15,5.6,5.6,0,0,0-.05-1.67,5.19,5.19,0,0,0-1-2.29,5.56,5.56,0,0,0-1.92-1.58,5.45,5.45,0,0,0-1.66-.48,5.51,5.51,0,0,0-.71,0,5.39,5.39,0,0,0-3.56,9.43,5.28,5.28,0,0,1,.42,7.42,5.41,5.41,0,0,1-7.44.43,15.91,15.91,0,0,1,3.28-26,15.27,15.27,0,0,1,4.43-1.54,16.56,16.56,0,0,1,4.9-.14,11.75,11.75,0,0,1,1.8.34,15.53,15.53,0,0,1,6.29,3.16,15.22,15.22,0,0,1,2.51,2.56,15.74,15.74,0,0,1,3.32,9.14,14.18,14.18,0,0,1-.12,2.63,15.91,15.91,0,0,1-8.66,12.22A5.4,5.4,0,0,1,3625.88,1019.21Zm-4.79-22.32a7.43,7.43,0,0,1,1,.06,7.5,7.5,0,0,1,2.32.67,7.71,7.71,0,0,1,2.67,2.18,7.32,7.32,0,0,1,1.46,3.21,7.87,7.87,0,0,1,.07,2.34,7.54,7.54,0,0,1-4.12,5.78,3.15,3.15,0,1,0,2.83,5.62,13.79,13.79,0,0,0,7.5-10.6,12.27,12.27,0,0,0,.11-2.26A13.66,13.66,0,0,0,3632,996a13.3,13.3,0,0,0-2.17-2.22,13.51,13.51,0,0,0-5.47-2.74,9.92,9.92,0,0,0-1.52-.29,14.4,14.4,0,0,0-4.27.11,13.14,13.14,0,0,0-3.83,1.33,13.79,13.79,0,0,0-2.86,22.54,3.23,3.23,0,0,0,4.44-.25,3.15,3.15,0,0,0-.24-4.42A7.52,7.52,0,0,1,3621.09,996.89Z" transform="translate(-3396.96 -697.32)"></path><path class="cls-2 sDaQaPcv_5" d="M205.11,280.3L205.02,279.96L207.07,279.43L207.16,279.76L205.11,280.3Z"></path><path class="cls-2 sDaQaPcv_6" d="M161.23,367.25L159.1,367.25L159.1,361.15L166.53,357.05L159.75,351.02L166.53,343.36L159.92,337.97L160.54,336.85L166.54,329.38L159.62,323.37L165.54,315.31L165.36,315.19L158.07,308.28L163.02,301.37L158.28,297.03L159.72,295.46L165.47,300.73L165.47,301.54L165.28,301.86L160.87,308.01L166.67,313.53L168.59,314.75L162.49,323.05L169.18,328.86L168.75,330.02L162.73,337.52L169.64,343.15L168.42,344.42L162.73,350.86L171.06,358.22L168.29,358.5L161.23,362.4L161.23,367.25Z"></path><path class="cls-2 sDaQaPcv_7" d="M207.96,367.25L201.59,367.25L201.59,365.12L205.84,365.12L205.84,362.4L198.69,358.46L196.36,358.15L204.72,350.85L197.9,343.11L204.72,337.55L198.06,329.23L198.71,328.42L204.77,323.07L198.59,314.97L204.71,308.22L199.1,302.57L195.29,303.94L203.6,295.5L205.11,297L200.83,301.3L207.63,308.16L201.36,315.1L207.65,323.35L200.88,329.34L207.73,337.84L200.94,343.38L207.72,351.03L200.79,357.11L207.96,361.16L207.96,367.25Z"></path><path class="cls-2 sDaQaPcv_8" d="M3579.68,1062.78" transform="translate(-3396.96 -697.32)"></path><path class="cls-2 sDaQaPcv_9" d="M3558.76,977" transform="translate(-3396.96 -697.32)"></path><path class="cls-2 sDaQaPcv_10" d="M160.63,280.8L159.98,280.17L160.89,278.63L161.8,278.63L161.8,279.4L162.01,279.18L161.8,279.42L161.8,279.94L162.33,280.3L162.16,280.54L161.8,280.3L161.8,280.76L161.45,280.76L161.45,280.06L161.33,279.98L160.63,280.8Z"></path><path class="cls-2 sDaQaPcv_11" d="M206.97,280.69L206.17,279.98L205.34,280.54L205.17,280.3L205.94,279.77L205.38,279.28L205.97,279.75L206.92,279.1L207.59,280.07L206.97,280.69Z"></path><path class="cls-2 sDaQaPcv_12" d="M3598.08,1012.67h-34.77l-7.47-8.28h49.71Zm-33.82-2.12h32.88l3.63-4h-40.15Z" transform="translate(-3396.96 -697.32)"></path><path class="cls-2 sDaQaPcv_13" d="M3596.48,1027.74h-33.66l0.79-1.06-8.18-7.22H3606l-8.17,7.21,0.7,0.92Zm-30.86-2.12h30.17l4.57-4H3561Z" transform="translate(-3396.96 -697.32)"></path><path class="cls-2 sDaQaPcv_14" d="M3599.16,1042.06h-36.94l1.27-1.38-6.74-5.5,1.11-1.39h45.68l1.11,1.39-6.75,5.51Zm-33.22-2.12h29.5l4.94-4H3561Z" transform="translate(-3396.96 -697.32)"></path><path class="cls-2 sDaQaPcv_15" d="M3595.9,1055.86h-34.42l2.31-1.31-8-7h49.81l-8,7,2.19,1.25Zm-29.81-2.12h29.21l4.64-4.06h-38.49Z" transform="translate(-3396.96 -697.32)"></path><path class="cls-2 sDaQaPcv_16" width="2.12" height="0.34" transform="translate(-3529 229.63) rotate(-14.65)" d="M3539.23 977.01 L3541.35 977.01 L3541.35 977.35 L3539.23 977.35 Z"></path><path class="cls-2 sDaQaPcv_17" d="M101.75,367.25L99.62,367.25L99.62,361.23L104.93,357.51L98.07,351.83L97.05,351.16L103.85,343.38L97.16,337.94L97.75,336.97L103.87,329.34L97.08,323.35L103.38,315.09L103.31,315.02L95.83,308.26L101.45,301.24L97.85,296.93L99.47,295.57L103.87,300.82L103.87,301.57L103.64,301.9L98.74,308.03L106.15,314.96L99.97,323.07L106.74,329.04L106.05,330.02L100.02,337.53L106.89,343.12L100.21,350.78L107,356.42L109.65,356.81L101.75,362.33L101.75,367.25Z"></path><path class="cls-2 sDaQaPcv_18" d="M144.23,367.25L135.74,367.25L135.74,365.12L142.11,365.12L142.11,362.38L135.47,358.38L133.78,357.75L135.17,356.6L141.88,350.82L135.15,343.1L141.97,337.54L135.25,329.04L142.01,323.07L135.84,314.96L142,308.17L135.26,301.29L135.85,300.51L140.09,295.56L141.7,296.94L138.1,301.15L144.91,308.12L138.61,315.09L144.9,323.35L138.12,329.34L144.94,337.86L138.16,343.39L144.94,351.08L143.62,352.13L137.69,357.24L144.23,361.18L144.23,367.25Z"></path><path class="cls-2 sDaQaPcv_19" d="M3496,977" transform="translate(-3396.96 -697.32)"></path><path class="cls-2 sDaQaPcv_20" d="M97.86,280.78L97.24,280.16L98.12,278.63L99.05,278.63L99.05,279.42L99.28,279.19L99.05,279.45L99.05,279.93L99.58,280.29L99.41,280.53L99.05,280.29L99.05,280.76L98.69,280.76L98.69,280.06L98.58,279.98L97.86,280.78Z"></path><path class="cls-2 sDaQaPcv_21" d="M144.22,280.68L143.41,279.98L142.58,280.54L142.41,280.29L143.17,279.77L142.61,279.29L143.21,279.75L144.17,279.11L144.82,280.06L144.22,280.68Z"></path><path class="cls-2 sDaQaPcv_22" d="M3535.33,1012.67h-34.77l-7.48-8.28h49.72Zm-33.82-2.12h32.88l3.64-4h-40.16Z" transform="translate(-3396.96 -697.32)"></path><path class="cls-2 sDaQaPcv_23" d="M3533.72,1027.74H3500l0.8-1.07-8.18-7.22h50.55l-8.18,7.22,0.66,0.91Zm-30.86-2.12H3533l4.57-4h-39.32Z" transform="translate(-3396.96 -697.32)"></path><path class="cls-2 sDaQaPcv_24" d="M3536.39,1042.06h-36.91l1.26-1.38-6.76-5.52,1.14-1.38h45.65l1.14,1.38-6.76,5.52Zm-33.21-2.12h29.51l4.94-4h-39.4Z" transform="translate(-3396.96 -697.32)"></path><path class="cls-2 sDaQaPcv_25" d="M3533.14,1055.86h-34.2l2.13-1.29-8-7h49.8l-8,7,2,1.21Zm-29.81-2.12h29.22l4.64-4.06h-38.5Z" transform="translate(-3396.96 -697.32)"></path><path class="cls-2 sDaQaPcv_26" d="M3612.09,1094.49h-63.83v-8.32h63.83v8.32Zm-61.7-2.12H3610v-4.07h-59.58v4.07Z" transform="translate(-3396.96 -697.32)"></path><path class="cls-2 sDaQaPcv_27" d="M3581.76,1088.3h-33.5v-4.2a26.19,26.19,0,0,1,26.16-26.16h7.34v30.36Zm-31.37-2.12h29.25v-26.12h-5.21a24.07,24.07,0,0,0-24,24v2.08Z" transform="translate(-3396.96 -697.32)"></path><path class="cls-2 sDaQaPcv_28" d="M3570.65,884.73h-42.33v-15.2h42.33v15.2Zm-40.21-2.12h38.09v-11h-38.09v11Z" transform="translate(-3396.96 -697.32)"></path><path class="cls-2 sDaQaPcv_29" d="M90.97,244.69L67.69,226.69L95.07,191.27L96.75,192.57L70.67,226.31L90.69,241.78L95.11,236.74L96.71,238.14L90.97,244.69Z"></path><path class="cls-2 sDaQaPcv_30" d="M3604.91,990.22H3490.21V885.71c0-4.55,5.39-6.6,9.33-8.09,1.62-.63,3.85-0.4,6-0.18,1,0.1,2,.2,2.77.2h81.41a12,12,0,0,0,2.33-.31,7.62,7.62,0,0,1,4-.08c4.39,1.39,8.87,3.48,8.87,8.46V990.22Zm-112.58-2.12h110.46V885.71c0-2.91-2.14-4.77-7.39-6.44h0a5.91,5.91,0,0,0-2.91.14,13.81,13.81,0,0,1-2.74.35h-81.41c-0.92,0-1.92-.1-3-0.21-1.82-.18-3.89-0.39-5,0.05-4.36,1.65-8,3.25-8,6.11V988.1Z" transform="translate(-3396.96 -697.32)"></path><path class="cls-2 sDaQaPcv_31" d="M3605.22,887.79h-2.12c0-3.3-3-6.36-7.54-7.81l-0.74-.24V877h6.42C3604.38,877,3605.22,883.78,3605.22,887.79ZM3599,879.1a14,14,0,0,1,3.39,2.42c-0.41-1.51-.91-2.32-1.18-2.43H3599Z" transform="translate(-3396.96 -697.32)"></path><path class="cls-2 sDaQaPcv_32" d="M3605.22,991.17h-10.41V877.52l1.38,0.44c5.48,1.74,9,5.6,9,9.84V991.17Zm-8.28-2.12h6.16V887.79c0-3-2.37-5.72-6.16-7.3V989Z" transform="translate(-3396.96 -697.32)"></path><path class="cls-2 sDaQaPcv_33" d="M3503,989.22h-10.2V887.79c0-4,3.07-7.6,8-9.46l1.1-.42,0.3,1.14a27.41,27.41,0,0,1,.79,6.8V989.22ZM3495,987.1h6V885.85a27.35,27.35,0,0,0-.45-5.06c-3.43,1.62-5.51,4.22-5.51,7V987.1Z" transform="translate(-3396.96 -697.32)"></path><path class="cls-2 sDaQaPcv_34" d="M3589.36,947.77h-80.71l-1.86-4.49V891.84h84.48l-0.09,51.79ZM3510,945.64H3588l1.17-2.67V894h-80.23v49.1Z" transform="translate(-3396.96 -697.32)"></path><path class="cls-2 sDaQaPcv_35" d="M3590.24,956.5h-82.4v-5.09h82.4v5.09ZM3510,954.37h78.15v-0.84H3510v0.84Z" transform="translate(-3396.96 -697.32)"></path><path class="cls-2 sDaQaPcv_36" d="M3590.23,944h-82.4V888.09h82.4V944ZM3510,941.9h78.15V890.21H3510V941.9Z" transform="translate(-3396.96 -697.32)"></path><path class="cls-2 sDaQaPcv_37" d="M3590.24,968.14h-82.4v-5.09h82.4v5.09ZM3510,966h78.15v-0.84H3510V966Z" transform="translate(-3396.96 -697.32)"></path><path class="cls-2 sDaQaPcv_38" d="M3590.23,978.95h-82.4v-5.09h82.4v5.09ZM3510,976.82h78.15V976H3510v0.84Z" transform="translate(-3396.96 -697.32)"></path><path class="cls-2 sDaQaPcv_39" d="M3548.64,1094.49h-63.83v-8.32h63.83v8.32Zm-61.71-2.12h59.58v-4.07h-59.58v4.07Z" transform="translate(-3396.96 -697.32)"></path><path class="cls-2 sDaQaPcv_40" d="M3551.75,754h-4.53V703.42h4.53V754Zm-2.4-2.12h0.28V705.55h-0.28v46.29Z" transform="translate(-3396.96 -697.32)"></path><path class="cls-2 sDaQaPcv_41" d="M3549.49,711.15a6.66,6.66,0,1,1,6.66-6.66A6.67,6.67,0,0,1,3549.49,711.15Zm0-11.2a4.54,4.54,0,1,0,4.54,4.54A4.55,4.55,0,0,0,3549.49,699.95Z" transform="translate(-3396.96 -697.32)"></path><path class="cls-2 sDaQaPcv_42" d="M3492.84,945.22l-30.54-8.81,3.2-12.32Zm-28-10.28,17.86,5.15-16-12.36Z" transform="translate(-3396.96 -697.32)"></path><path class="cls-2 sDaQaPcv_43" d="M3472.59,996.73l-10.32-62.54,26.58,7.67v51.72Zm-7.68-59.57,9.42,57.07,12.4-2.41V943.45Z" transform="translate(-3396.96 -697.32)"></path><path class="cls-2 sDaQaPcv_44" d="M3470.15,1000.89v-9.37l20.73-4v9.35Zm2.12-7.62v5l16.49-3.2v-5Z" transform="translate(-3396.96 -697.32)"></path><path class="cls-2 sDaQaPcv_45" d="M3478.21,1020.54a5.26,5.26,0,0,1-2.35-.56,15.94,15.94,0,1,1,17.73-2.37,5.42,5.42,0,0,1-7.43-.41,5.28,5.28,0,0,1,.41-7.43,5.4,5.4,0,1,0-6,.8A5.26,5.26,0,0,1,3478.21,1020.54Zm4.77-28.61a13.9,13.9,0,0,0-1.75.11,13.81,13.81,0,0,0-4.43,26,3.19,3.19,0,0,0,4.22-1.4,3.14,3.14,0,0,0-1.41-4.21,7.53,7.53,0,1,1,8.37-1.12,3.15,3.15,0,0,0-.25,4.44,3.23,3.23,0,0,0,4.43.24A13.8,13.8,0,0,0,3483,991.93Z" transform="translate(-3396.96 -697.32)"></path><path class="cls-2 sDaQaPcv_46" d="M3561.5,1003.88h-24.93l3-9.6h-46.67v-7.2h112.37v7.2h-46.67Zm-22.05-2.12h19.18l-3-9.6h47.43v-3H3495v3h47.42Z" transform="translate(-3396.96 -697.32)"></path><path class="cls-2 sDaQaPcv_47" d="M3548.64,1088.29h-63.83v-4.2a26.19,26.19,0,0,1,26.16-26.16h11.51a26.19,26.19,0,0,1,26.16,26.16v4.2Zm-61.71-2.12h59.58v-2.08a24.07,24.07,0,0,0-24-24H3511a24.07,24.07,0,0,0-24,24v2.08Z" transform="translate(-3396.96 -697.32)"></path><path class="cls-2 sDaQaPcv_48" d="M3558.8,1006.52h-19.66l-3.09-4.77h26Zm-18.5-2.12h17.38l0.35-.52H3540Z" transform="translate(-3396.96 -697.32)"></path><path class="cls-2 sDaQaPcv_49" d="M3612.1,1088.3h-32.46v-30.36h6.3a26.19,26.19,0,0,1,26.16,26.16v4.2Zm-30.33-2.12H3610v-2.08a24.06,24.06,0,0,0-24-24h-4.17v26.12Z" transform="translate(-3396.96 -697.32)"></path><path class="cls-2 sDaQaPcv_50" d="M3548.64,1088.3h-32.45v-30.36h6.29a26.19,26.19,0,0,1,26.16,26.16v4.2Zm-30.33-2.12h28.21v-2.08a24.07,24.07,0,0,0-24-24h-4.17v26.12Z" transform="translate(-3396.96 -697.32)"></path><path class="cls-2 sDaQaPcv_51" d="M3508.9,943" transform="translate(-3396.96 -697.32)"></path><path class="cls-2 sDaQaPcv_52" d="M3607,869.43H3491v-116h116v116Zm-113.89-2.12H3604.9V755.53H3493.13V867.3Z" transform="translate(-3396.96 -697.32)"></path><path class="cls-2 sDaQaPcv_53" d="M3550.53,847.26a38.33,38.33,0,0,1-28.79-13l1.51-1.49a36.39,36.39,0,0,0,51.37-51.38l1.49-1.51A38.52,38.52,0,0,1,3550.53,847.26Zm-12-4.14a36.43,36.43,0,0,0,46.37-46.36A38.56,38.56,0,0,1,3538.57,843.12Z" transform="translate(-3396.96 -697.32)"></path><path class="cls-2 sDaQaPcv_54" d="M3547.41,844.14A38.5,38.5,0,1,1,3586,805.59,38.33,38.33,0,0,1,3547.41,844.14Zm3.11-71.86a31.54,31.54,0,1,0,24.09,9.14A36.47,36.47,0,0,0,3550.52,772.28Z" transform="translate(-3396.96 -697.32)"></path><path class="cls-2 sDaQaPcv_55" d="M3550.53,830.74a22.59,22.59,0,1,1,22.59-22.59A22.62,22.62,0,0,1,3550.53,830.74Zm0-43.06A20.47,20.47,0,1,0,3571,808.15,20.49,20.49,0,0,0,3550.53,787.68Z" transform="translate(-3396.96 -697.32)"></path><path class="cls-2 sDaQaPcv_56" d="M3535.12,801.39a8.79,8.79,0,1,1,8.79-8.79A8.8,8.8,0,0,1,3535.12,801.39Zm0-17a8.26,8.26,0,1,0,8.26,8.26A8.27,8.27,0,0,0,3535.12,784.34Z" transform="translate(-3396.96 -697.32)"></path><path class="cls-2 sDaQaPcv_57" d="M3609.85,943.71l26.49-22.24,3.67,12.2Zm25.38-18.53-15.48,13,17.63-5.86Z" transform="translate(-3396.96 -697.32)"></path><path class="cls-2 sDaQaPcv_58" d="M3632.62,990.62h-10.78l0.12-1.17,4.41-53.48,13.58-4.52Zm-8.45-2.12h6.57l6.69-54-9.05,3Z" transform="translate(-3396.96 -697.32)"></path></g><path class="cls-2 sDaQaPcv_59" d="M103.87,60.47L14.65,61.35L14.65,59.23L103.87,60.47L103.87,60.47Z"></path><path class="cls-2 sDaQaPcv_60" d="M139.98,213.24L1.91,214.3L1.91,212.18L139.98,213.24L139.98,213.24Z"></path><path class="cls-2 sDaQaPcv_61" d="M307.8,207.93L220.71,206.87L220.71,206.87L307.8,205.8L307.8,207.93Z"></path><path class="cls-2 sDaQaPcv_62" d="M267.44,114.46L165.47,113.53L165.47,113.53L267.44,112.33L267.44,114.46Z"></path><path class="cls-2 sDaQaPcv_63" d="M288.48,339.63L173.97,338.58L173.97,338.58L288.48,337.51L288.48,339.63Z"></path><g class="cls-3"><path class="cls-2 sDaQaPcv_64" d="M3428.12,745.1l-2.28,2.67c-0.26.37-.74,1.25-1.27,1.25a1.11,1.11,0,0,1-1.07-.94c0-.61,1.55-2.12,1.86-2.71-1.53.13-2.23-.15-2.23-0.9,0-.5.63-1.66,1.22-1.66,0.15,0,.33.15,0.5,0.15s0.26-.15,3.59-0.79c0.83-.81,2.41-2.52,4.33-4.71a3.41,3.41,0,0,0,.92-1.51,0.67,0.67,0,0,0-.77-0.48c-1.16,0-3.92.81-7.51,2.3a0.37,0.37,0,0,1,.31.33,0.63,0.63,0,0,1-.55.52,15.52,15.52,0,0,0-3,1.36,2.11,2.11,0,0,1-.87.31,0.88,0.88,0,0,1-.66-1,5.27,5.27,0,0,1,.74-2.41c0.79-.9,4.44-2.1,5.69-2.49a24.19,24.19,0,0,1,6.45-1.12,2,2,0,0,1,2.36,2.15c0,1.36-1.31,2.67-2.19,3.61l-2.47,2.63,3.37-.39,4-5c0.26-.35,1.18-1.58,1.64-1.58a0.42,0.42,0,0,1,.37.5c0,0.7-.15,1.12-1.79,3.13l-2.36,2.91a5.79,5.79,0,0,1,3,.55,11.25,11.25,0,0,0-2.63,2.93,7.08,7.08,0,0,0-2.23-.15,6.43,6.43,0,0,0-1.14,2.25,7.18,7.18,0,0,0,.24,1.31c-0.7-.15-1.82.92-2.39,0.72-0.37-.13-0.5-0.44-0.39-1.09a11.44,11.44,0,0,1,1.27-3.19Z" transform="translate(-3396.96 -697.32)"></path><path class="cls-2 sDaQaPcv_65" d="M3447.08,745.12c-1.33,1.55-3.74,3.61-5.91,3.61-1.6,0-2.34-1.42-2.38-2.87-0.09-2.87,3.08-5.8,5.93-5.78,0.7,0,1.57.17,1.57,1,0,1.07-1.07,2.69-5.27,4.07l0,0.48a1.12,1.12,0,0,0,1.36,1.12c1.55,0,3.39-1.6,4.55-2.52Zm-2.71-3.52a0.22,0.22,0,0,0-.26-0.24,4.81,4.81,0,0,0-3,2.78C3443.08,743.48,3444.39,742,3444.37,741.59Z" transform="translate(-3396.96 -697.32)"></path><path class="cls-2 sDaQaPcv_66" d="M3450.34,746.89a7.81,7.81,0,0,1-2.32,1.47c-0.61,0-1.88-1.44-1.93-2.58-0.09-2.73,5.6-5.54,8.14-5.6a1.34,1.34,0,0,1,1.42,1,1.12,1.12,0,0,1-.77.55,0.87,0.87,0,0,1,.63.9c0,0.7-1.9,2.23-1.9,3.26a0.58,0.58,0,0,0,.68.53c0.92,0,2.17-1.12,3.11-1.75l0.17,0.81c-0.94,1.07-3.87,3.41-4.94,3.41a1,1,0,0,1-1-1.16,7.37,7.37,0,0,1,.81-2.45l0,0Zm-2.65-.57a0.44,0.44,0,0,0,.44.44c0.44-.09,1.12,0,5.45-4.4l0,0C3448.33,743.91,3447.7,745.25,3447.7,746.32Z" transform="translate(-3396.96 -697.32)"></path><path class="cls-2 sDaQaPcv_67" d="M3466.18,741.62c-0.72,1.14-1.77,2.56-1.77,4,0,0.35,0,1.09.5,1.09,0.74,0,2.76-1.77,3.46-2.23l0.15,0.72c-1,1.14-3.28,3.43-4.88,3.43a1.38,1.38,0,0,1-1.16-1.57,10.7,10.7,0,0,1,.17-1.66c-0.77.66-2.8,2.78-3.78,2.78s-1.6-2.1-1.6-2.87c0-2.58,4.35-4.77,6.21-4.88a1.12,1.12,0,0,1,.92.61c0.72-1.25,2.65-5.78,4.24-5.78a0.78,0.78,0,0,1,.7.83,4.9,4.9,0,0,1-.94,2.1Zm-7,4.11a0.36,0.36,0,0,0,.33.42c0.26,0.07,3.79-2.56,4.14-3.85C3459.81,743.54,3459.33,744.29,3459.2,745.73Z" transform="translate(-3396.96 -697.32)"></path></g><g class="cls-3"><path class="cls-2 sDaQaPcv_68" d="M3410.74,899.13c0,1.25-2.69,4.2-8.58,4.53-1.58.09-3.76-.44-3.76-2.43,0-.7-0.11-0.81,2.43-4.16-0.61,0-2-.11-2-0.85,0-.94,3.06-1,3.72-1.18,1.42-1.38,2.87-3.22,5.05-3.22-0.15.37-.31,0.66-2.12,2.78,4.95-.68,6.11-2.17,6.06-2.76s-0.63-1.25-3.17-1.07a26.5,26.5,0,0,0-6.15,1.53,0.43,0.43,0,0,1,.31.33,0.81,0.81,0,0,1-.79.5,15.43,15.43,0,0,0-3,.83,2.25,2.25,0,0,1-.68.15,0.51,0.51,0,0,1-.55-0.59,5.44,5.44,0,0,1,1-1.84,5,5,0,0,1,1.84-1.73,30.39,30.39,0,0,1,8.49-1.66c3.76,0,4.66,1.49,4.66,2.67,0,3.54-6.63,4.44-9.19,4.94l-0.44.39C3405.38,896.59,3410.74,897,3410.74,899.13Zm-9.1-.39a2.29,2.29,0,0,0-.77,1.25c0,0.94,1.73,1.2,2.43,1.2,1.95,0,5-1.44,5-2.32,0-1.14-4.51-1.47-5.4-1.47Z" transform="translate(-3396.96 -697.32)"></path><path class="cls-2 sDaQaPcv_69" d="M3420.73,900.13a4,4,0,0,1-3.54,1.77,4.66,4.66,0,0,1-3.37,1.64c-1.14,0-2.19-1.14-2.28-3.13a4.29,4.29,0,0,1,2-3.68,7.39,7.39,0,0,1,4.09-1.62,1,1,0,0,1,1.2.79,0.7,0.7,0,0,1-.5.59,1.09,1.09,0,0,1,.79,1.29,5.83,5.83,0,0,1-.85,2.58c1,0.17,1.57-.66,2.25-1.16Zm-6.67-1a3.22,3.22,0,0,0-.9,2,0.8,0.8,0,0,0,1,.83,2.45,2.45,0,0,0,1.68-.87,2.35,2.35,0,0,1-.26-1,7.78,7.78,0,0,1,.94-2.56A13.29,13.29,0,0,0,3414.06,899.1Z" transform="translate(-3396.96 -697.32)"></path><path class="cls-2 sDaQaPcv_70" d="M3429.22,896.65c-0.72,1.14-1.77,2.56-1.77,4,0,0.35,0,1.09.5,1.09,0.74,0,2.76-1.77,3.46-2.23l0.15,0.72c-1,1.14-3.28,3.43-4.88,3.43a1.38,1.38,0,0,1-1.16-1.57,10.7,10.7,0,0,1,.17-1.66c-0.77.66-2.8,2.78-3.78,2.78s-1.6-2.1-1.6-2.87c0-2.58,4.35-4.77,6.21-4.88a1.12,1.12,0,0,1,.92.61c0.72-1.25,2.65-5.78,4.24-5.78a0.78,0.78,0,0,1,.7.83,4.91,4.91,0,0,1-.94,2.1Zm-7,4.11a0.36,0.36,0,0,0,.33.41c0.26,0.07,3.79-2.56,4.14-3.85C3422.85,898.58,3422.37,899.32,3422.24,900.77Z" transform="translate(-3396.96 -697.32)"></path><path class="cls-2 sDaQaPcv_71" d="M3435,907a3.29,3.29,0,0,1-1.18,1.09c-0.46,0-.66-1.07-0.66-1.44a3.72,3.72,0,0,1,.59-1.31l2.93-4.94,0,0a17.94,17.94,0,0,1-3.65,2.67,2.55,2.55,0,0,1-1.73-2.58c-0.09-2.63,3.65-5.4,4.27-5.43a1.5,1.5,0,0,1,.94,1c0,0.83-2.47,3.11-3.19,3.68a2.36,2.36,0,0,0-.42,1.27,6.21,6.21,0,0,0,3.13-1.93c2.25-2.08,3.65-3.59,4.07-3.66s0.59,0.79.59,1.1a4.71,4.71,0,0,1-.9,1.93l-3.24,4.81,0,0,4.86-4.31,0.18,0.81Z" transform="translate(-3396.96 -697.32)"></path></g><g class="cls-3"><path class="cls-2 sDaQaPcv_72" d="M3639.63,793.27l0,0c-1.84,1.75-3.65,3.52-5.2,5.27-0.64.72-3,3.87-4.11,5.43a1.2,1.2,0,0,1-.7.61,2.48,2.48,0,0,1-1.73-1.38,1.33,1.33,0,0,1,.22-0.48c0.9-1.38,5.1-8.71,5.1-9.91,0-.28-0.07-0.46-0.35-0.46-0.74,0-3.15,1.18-6.83,3.61a1.35,1.35,0,0,1-.66.28c-0.42,0-.39-0.7-0.39-1,0-2.63,3.79-5.45,4.44-5.45a0.22,0.22,0,0,1,.24.18,4.32,4.32,0,0,1-1.18,1.4l0,0c1.55-.85,4.27-2.39,6.08-2.39a1.22,1.22,0,0,1,1.4,1.23c-0.13,1.75-1,3.2-3.81,8.16l0,0c4.2-5.05,6.06-6.87,6.61-7.24s2.3-1.68,2.8-1.68a2.73,2.73,0,0,1,1.79,2.08c0,1.38-2.8,4.2-4.9,8.36a5.14,5.14,0,0,0-.68,1.79,0.72,0.72,0,0,0,.57.9c0.88,0,3.74-3,4.38-3.74,0,0.53.09,0.79,0.09,1a0.77,0.77,0,0,1-.24.5c-3.15,4.07-5.45,5.25-6.39,5.25-1.1,0-1.49-1-1.49-1.9a8.38,8.38,0,0,1,1.18-3.63Z" transform="translate(-3396.96 -697.32)"></path><path class="cls-2 sDaQaPcv_73" d="M3645.73,802.81a7.81,7.81,0,0,1-2.32,1.46c-0.61,0-1.88-1.44-1.92-2.58-0.09-2.73,5.6-5.53,8.14-5.6a1.34,1.34,0,0,1,1.42,1,1.13,1.13,0,0,1-.77.55,0.87,0.87,0,0,1,.63.9c0,0.7-1.9,2.23-1.9,3.26a0.58,0.58,0,0,0,.68.53c0.92,0,2.17-1.12,3.11-1.75l0.17,0.81c-0.94,1.07-3.87,3.41-4.94,3.41a1,1,0,0,1-1-1.16,7.33,7.33,0,0,1,.81-2.45l0,0Zm-2.65-.57a0.44,0.44,0,0,0,.44.44c0.44-.09,1.12,0,5.45-4.4l0,0C3643.72,799.83,3643.08,801.16,3643.08,802.24Z" transform="translate(-3396.96 -697.32)"></path><path class="cls-2 sDaQaPcv_74" d="M3660.8,796.13a0.63,0.63,0,0,1,.66.72c0,0.88-1.27,2.93-1.82,3.7a0.92,0.92,0,0,0,.74.29,4.27,4.27,0,0,0,1.86-.88l0.15,0.92a3.64,3.64,0,0,1-2.8,1.55,2,2,0,0,1-1.14-.57c-0.61.7-2.82,2.63-3.68,2.63-1.29,0-2.17-1.64-2.17-3.3,0-3,2.69-5.12,3.46-5.12,0.3,0,1.31,0,1.31.5,0,1-2.06,3.19-2.85,3.85a5.61,5.61,0,0,0-.33,1.29,0.71,0.71,0,0,0,.53.85c0.63,0,2.36-1.6,2.82-2a3.76,3.76,0,0,1,1.09-2.58C3659.08,797.4,3660,796.13,3660.8,796.13Z" transform="translate(-3396.96 -697.32)"></path></g><g class="cls-3"><path class="cls-2 sDaQaPcv_75" d="M3641,1030.25c-0.74.79-3.41,3.21-4.42,3.21a0.52,0.52,0,0,1-.52-0.55,5,5,0,0,1,1.33-2.19,4.2,4.2,0,0,1,2.28-1.38l2.56-2.71-3.26.26c-0.15,0-1.07,0-1.12-.28a1.37,1.37,0,0,1,.57-1.51,10.34,10.34,0,0,1,3-1l3.35-.63c0.72-1,2.49-4,2.49-5.05,0-.44-0.33-0.41-0.7-0.41a5.68,5.68,0,0,0-1.81.17,31.35,31.35,0,0,0-7.35,2.06l0,0,1.14,0c0.15,0,.41,0,0.41.2a0.74,0.74,0,0,1-.66.37l-2.54.79c-1.49.46-1.69,0.2-1.69-.2a10.72,10.72,0,0,1,1.69-3.35,5.2,5.2,0,0,1,3.3-1.6c5.73-1.31,7.37-1.38,8.66-1.38,0.79,0,2.25.09,2.25,1.16,0,1.62-2.45,5.91-3.44,7.35l1.47,0.24-0.87,1.4a1.55,1.55,0,0,1-.59.7,9.94,9.94,0,0,1-1.79.41Z" transform="translate(-3396.96 -697.32)"></path><path class="cls-2 sDaQaPcv_76" d="M3657.14,1026.77a4,4,0,0,1-3.54,1.77,4.66,4.66,0,0,1-3.37,1.64c-1.14,0-2.19-1.14-2.28-3.13a4.3,4.3,0,0,1,2-3.68,7.41,7.41,0,0,1,4.09-1.62,1,1,0,0,1,1.2.79,0.7,0.7,0,0,1-.5.59,1.09,1.09,0,0,1,.79,1.29,5.81,5.81,0,0,1-.85,2.58c1,0.17,1.57-.66,2.25-1.16Zm-6.67-1a3.22,3.22,0,0,0-.9,2,0.8,0.8,0,0,0,1,.83,2.45,2.45,0,0,0,1.68-.87,2.38,2.38,0,0,1-.26-1,7.73,7.73,0,0,1,.94-2.56A13.29,13.29,0,0,0,3650.47,1025.75Z" transform="translate(-3396.96 -697.32)"></path><path class="cls-2 sDaQaPcv_77" d="M3665.8,1026.77a4,4,0,0,1-3.54,1.77,4.67,4.67,0,0,1-3.37,1.64c-1.14,0-2.19-1.14-2.28-3.13a4.29,4.29,0,0,1,2-3.68,7.41,7.41,0,0,1,4.09-1.62,1,1,0,0,1,1.2.79,0.7,0.7,0,0,1-.5.59,1.09,1.09,0,0,1,.79,1.29,5.83,5.83,0,0,1-.85,2.58c1,0.17,1.57-.66,2.25-1.16Zm-6.67-1a3.22,3.22,0,0,0-.9,2,0.8,0.8,0,0,0,1,.83,2.46,2.46,0,0,0,1.69-.87,2.38,2.38,0,0,1-.26-1,7.77,7.77,0,0,1,.94-2.56A13.28,13.28,0,0,0,3659.13,1025.75Z" transform="translate(-3396.96 -697.32)"></path><path class="cls-2 sDaQaPcv_78" d="M3673.13,1020.93c-1,2.08-1.21,2.89-3.61,2.73-0.74,1-2,2.76-2,4.07a0.62,0.62,0,0,0,.66.77c0.7,0,1.49-.66,3.76-2.28l0.11,1c-1.29,1.18-3.65,3.52-5.51,3.52a1.33,1.33,0,0,1-1.38-1.46,5.81,5.81,0,0,1,.57-2.19l0,0-1.12.9-0.24-.83a12.64,12.64,0,0,0,3.33-3.5,8,8,0,0,0-2.08.09l0.24-.39c1.18-1.92,1.36-2.27,3.7-2.36,0.66-.9,1.14-1.92,2.41-1.92a0.58,0.58,0,0,1,.7.42,4,4,0,0,1-.85,1.42Z" transform="translate(-3396.96 -697.32)"></path><path class="cls-2 sDaQaPcv_79" d="M3680,1026.8c-1.34,1.55-3.74,3.61-5.91,3.61-1.6,0-2.34-1.42-2.38-2.87-0.09-2.87,3.08-5.8,5.93-5.78,0.7,0,1.57.17,1.57,1,0,1.07-1.07,2.69-5.27,4.07l0,0.48a1.12,1.12,0,0,0,1.36,1.12c1.55,0,3.39-1.6,4.55-2.52Zm-2.71-3.52a0.22,0.22,0,0,0-.26-0.24,4.82,4.82,0,0,0-3,2.78C3676,1025.16,3677.36,1023.65,3677.33,1023.27Z" transform="translate(-3396.96 -697.32)"></path><path class="cls-2 sDaQaPcv_80" d="M3681.27,1025.31a15.42,15.42,0,0,1-2.62,2.71l-0.09-1a7.64,7.64,0,0,0,1.44-1.6,0.55,0.55,0,0,1-.59-0.68c0-1.57,2.23-3.15,2.76-3.15a0.39,0.39,0,0,1,.39.37,1.45,1.45,0,0,1-.15.61c2.06-.28,3.26-0.55,3.48-0.28a2.2,2.2,0,0,1,.53,1.16,1.79,1.79,0,0,1-.92,1.42c-0.63.55-1.71,1.62-1.71,2.5a0.67,0.67,0,0,0,.68.61c0.94,0,2.32-1.42,3-2l0.15,0.81c-0.83.94-3.35,3.37-4.59,3.37a1.59,1.59,0,0,1-1.49-1.68c0-1.49,1.14-2.65,2-3.7l0,0Z" transform="translate(-3396.96 -697.32)"></path></g><path class="cls-2 sDaQaPcv_81" d="M3657.57,891.3c2.08,0.49,3,1.59,3,2.59,0,4.1-7.18,4.75-10.15,4.75-0.8,0-3.31,0-3.31-1.19a4.34,4.34,0,0,1,1-1.83,5.47,5.47,0,0,1,1.77-.6c0.1,0,.17,0,0.17.14a0.52,0.52,0,0,1-.35.39,2.36,2.36,0,0,0-.35.31v0c7.35,0.27,9.37-1.85,9.37-2.18,0-1-5.7-1.87-6.69-2s-2.1-.49-2.1-1.73a7.62,7.62,0,0,1,.66-2.74c0.64-1,4.36-3,8.87-3a12.37,12.37,0,0,1,2.59.29,0.55,0.55,0,0,1,.54.68c0,1.52-.51,1.87-1.73,2.35a5.83,5.83,0,0,0-1.85,1,1.24,1.24,0,0,1-.51.21,0.29,0.29,0,0,1-.33-0.31,4.59,4.59,0,0,1,1.5-1.44l0,0c-5.31.18-7.59,2.1-7.62,2.57C3652.09,889.82,3651.83,890,3657.57,891.3Z" transform="translate(-3396.96 -697.32)"></path><path class="cls-2 sDaQaPcv_82" d="M3669.32,895.27c-1.26,1.46-3.52,3.4-5.56,3.4-1.5,0-2.2-1.34-2.24-2.7-0.08-2.7,2.9-5.45,5.58-5.43,0.66,0,1.48.16,1.48,1,0,1-1,2.53-5,3.83l0,0.45a1.06,1.06,0,0,0,1.28,1c1.46,0,3.19-1.5,4.28-2.37Zm-2.55-3.31a0.2,0.2,0,0,0-.25-0.23,4.52,4.52,0,0,0-2.78,2.61C3665.55,893.73,3666.79,892.31,3666.77,892Z" transform="translate(-3396.96 -697.32)"></path><path class="cls-2 sDaQaPcv_83" d="M3671.29,894.47a1.49,1.49,0,0,0-.82,1.21,1.36,1.36,0,0,0,1.56,1.11c1.56,0,3.36-1.44,4.55-2.37l0.25,0.8c-1.26,1.34-3.56,3.38-5.52,3.38-1.58,0-2.35-1.48-2.35-3,0-1.73.62-2.37,2-3.38a9.12,9.12,0,0,1,4.05-1.81,0.82,0.82,0,0,1,.93.95,3.71,3.71,0,0,1-2.18,2.72,0.84,0.84,0,0,1-.7-0.91Z" transform="translate(-3396.96 -697.32)"></path><path class="cls-2 sDaQaPcv_84" d="M3683.56,889.75c-1,2-1.13,2.72-3.4,2.57-0.7.91-1.87,2.59-1.87,3.83a0.58,0.58,0,0,0,.62.72c0.66,0,1.4-.62,3.54-2.14l0.1,0.91c-1.21,1.11-3.44,3.31-5.19,3.31a1.26,1.26,0,0,1-1.3-1.38,5.44,5.44,0,0,1,.54-2.06l0,0-1,.84-0.23-.78a11.89,11.89,0,0,0,3.13-3.29,7.46,7.46,0,0,0-2,.08l0.23-.37c1.11-1.81,1.28-2.14,3.48-2.22,0.62-.84,1.07-1.81,2.26-1.81a0.54,0.54,0,0,1,.66.39,3.73,3.73,0,0,1-.8,1.34Z" transform="translate(-3396.96 -697.32)"></path><path class="cls-2 sDaQaPcv_85" d="M3688.23,895.66c-0.93,1.13-2.74,3-4.3,3-1.21,0-1.77-1.4-1.77-2.45,0-2.51,2.57-5,3.81-5a0.78,0.78,0,0,1,.9.58c0,1-2,2.86-2.9,3.46a1,1,0,0,0,1.09,1.3c1.09,0,2.16-1.09,3-1.69Zm-2-5.72a1.86,1.86,0,0,1,1.79-1.58,0.65,0.65,0,0,1,.68.64,1.9,1.9,0,0,1-1.65,1.83A0.83,0.83,0,0,1,3686.25,889.94Z" transform="translate(-3396.96 -697.32)"></path><path class="cls-2 sDaQaPcv_86" d="M3696.54,895.25a3.79,3.79,0,0,1-3.34,1.67,4.39,4.39,0,0,1-3.17,1.54c-1.07,0-2.06-1.07-2.14-2.94a4,4,0,0,1,1.87-3.46,7,7,0,0,1,3.85-1.52,1,1,0,0,1,1.13.74,0.66,0.66,0,0,1-.47.56A1,1,0,0,1,3695,893a5.48,5.48,0,0,1-.8,2.43c0.9,0.16,1.48-.62,2.12-1.09Zm-6.28-1a3,3,0,0,0-.84,1.89,0.75,0.75,0,0,0,.91.78,2.31,2.31,0,0,0,1.58-.82,2.22,2.22,0,0,1-.25-0.95,7.28,7.28,0,0,1,.88-2.41A12.49,12.49,0,0,0,3690.26,894.28Z" transform="translate(-3396.96 -697.32)"></path><path class="cls-2 sDaQaPcv_87" d="M3705.92,894.26l0.16,0.91c-1.09,1-3.21,3.5-4.71,3.5a1.21,1.21,0,0,1-1.15-1.36c0-1.23,1.11-2.59,1.77-3.54l0,0a16.35,16.35,0,0,0-3.17,3.15c-0.31.39-1.07,1.4-1.63,1.4-0.91,0-1.13-1.3-1.15-2-0.06-1.42,1.23-3.5,2.43-4.51a1,1,0,0,1,.8-0.25c1.24,0,1.13.33,1.13,0.45,0,0.8-2.59,2.88-2.59,3.38a0.23,0.23,0,0,0,.23.23,0.72,0.72,0,0,0,.41-0.29c1.65-2.1,5.43-4.63,6-4.63a0.53,0.53,0,0,1,.33.39,4.75,4.75,0,0,1,.31,1.11c0,0.8-2.53,2.37-2.53,3.79a0.38,0.38,0,0,0,.37.37,4.3,4.3,0,0,0,1.77-1Z" transform="translate(-3396.96 -697.32)"></path><style>.sDaQaPcv_0{stroke-dasharray:468 470;stroke-dashoffset:469;}.start .sDaQaPcv_0{animation:sDaQaPcv_draw 171ms linear 0ms forwards;}.sDaQaPcv_1{stroke-dasharray:205 207;stroke-dashoffset:206;}.start .sDaQaPcv_1{animation:sDaQaPcv_draw 75ms linear 171ms forwards;}.sDaQaPcv_2{stroke-dasharray:301 303;stroke-dashoffset:302;}.start .sDaQaPcv_2{animation:sDaQaPcv_draw 110ms linear 246ms forwards;}.sDaQaPcv_3{stroke-dasharray:105 107;stroke-dashoffset:106;}.start .sDaQaPcv_3{animation:sDaQaPcv_draw 38ms linear 356ms forwards;}.sDaQaPcv_4{stroke-dasharray:271 273;stroke-dashoffset:272;}.start .sDaQaPcv_4{animation:sDaQaPcv_draw 99ms linear 395ms forwards;}.sDaQaPcv_5{stroke-dasharray:5 7;stroke-dashoffset:6;}.start .sDaQaPcv_5{animation:sDaQaPcv_draw 2ms linear 494ms forwards;}.sDaQaPcv_6{stroke-dasharray:205 207;stroke-dashoffset:206;}.start .sDaQaPcv_6{animation:sDaQaPcv_draw 75ms linear 496ms forwards;}.sDaQaPcv_7{stroke-dasharray:220 222;stroke-dashoffset:221;}.start .sDaQaPcv_7{animation:sDaQaPcv_draw 80ms linear 571ms forwards;}.sDaQaPcv_8{stroke-dasharray:0 2;stroke-dashoffset:1;}.start .sDaQaPcv_8{animation:sDaQaPcv_draw 0ms linear 652ms forwards;}.sDaQaPcv_9{stroke-dasharray:0 2;stroke-dashoffset:1;}.start .sDaQaPcv_9{animation:sDaQaPcv_draw 0ms linear 652ms forwards;}.sDaQaPcv_10{stroke-dasharray:10 12;stroke-dashoffset:11;}.start .sDaQaPcv_10{animation:sDaQaPcv_draw 4ms linear 653ms forwards;}.sDaQaPcv_11{stroke-dasharray:9 11;stroke-dashoffset:10;}.start .sDaQaPcv_11{animation:sDaQaPcv_draw 3ms linear 657ms forwards;}.sDaQaPcv_12{stroke-dasharray:191 193;stroke-dashoffset:192;}.start .sDaQaPcv_12{animation:sDaQaPcv_draw 70ms linear 660ms forwards;}.sDaQaPcv_13{stroke-dasharray:193 195;stroke-dashoffset:194;}.start .sDaQaPcv_13{animation:sDaQaPcv_draw 70ms linear 731ms forwards;}.sDaQaPcv_14{stroke-dasharray:189 191;stroke-dashoffset:190;}.start .sDaQaPcv_14{animation:sDaQaPcv_draw 69ms linear 801ms forwards;}.sDaQaPcv_15{stroke-dasharray:195 197;stroke-dashoffset:196;}.start .sDaQaPcv_15{animation:sDaQaPcv_draw 71ms linear 871ms forwards;}.sDaQaPcv_16{stroke-dasharray:5 7;stroke-dashoffset:6;}.start .sDaQaPcv_16{animation:sDaQaPcv_draw 2ms linear 942ms forwards;}.sDaQaPcv_17{stroke-dasharray:203 205;stroke-dashoffset:204;}.start .sDaQaPcv_17{animation:sDaQaPcv_draw 74ms linear 944ms forwards;}.sDaQaPcv_18{stroke-dasharray:215 217;stroke-dashoffset:216;}.start .sDaQaPcv_18{animation:sDaQaPcv_draw 78ms linear 1019ms forwards;}.sDaQaPcv_19{stroke-dasharray:0 2;stroke-dashoffset:1;}.start .sDaQaPcv_19{animation:sDaQaPcv_draw 0ms linear 1098ms forwards;}.sDaQaPcv_20{stroke-dasharray:10 12;stroke-dashoffset:11;}.start .sDaQaPcv_20{animation:sDaQaPcv_draw 4ms linear 1098ms forwards;}.sDaQaPcv_21{stroke-dasharray:8 10;stroke-dashoffset:9;}.start .sDaQaPcv_21{animation:sDaQaPcv_draw 3ms linear 1102ms forwards;}.sDaQaPcv_22{stroke-dasharray:191 193;stroke-dashoffset:192;}.start .sDaQaPcv_22{animation:sDaQaPcv_draw 70ms linear 1105ms forwards;}.sDaQaPcv_23{stroke-dasharray:193 195;stroke-dashoffset:194;}.start .sDaQaPcv_23{animation:sDaQaPcv_draw 70ms linear 1175ms forwards;}.sDaQaPcv_24{stroke-dasharray:189 191;stroke-dashoffset:190;}.start .sDaQaPcv_24{animation:sDaQaPcv_draw 69ms linear 1246ms forwards;}.sDaQaPcv_25{stroke-dasharray:194 196;stroke-dashoffset:195;}.start .sDaQaPcv_25{animation:sDaQaPcv_draw 71ms linear 1316ms forwards;}.sDaQaPcv_26{stroke-dasharray:272 274;stroke-dashoffset:273;}.start .sDaQaPcv_26{animation:sDaQaPcv_draw 99ms linear 1387ms forwards;}.sDaQaPcv_27{stroke-dasharray:217 219;stroke-dashoffset:218;}.start .sDaQaPcv_27{animation:sDaQaPcv_draw 79ms linear 1486ms forwards;}.sDaQaPcv_28{stroke-dasharray:214 216;stroke-dashoffset:215;}.start .sDaQaPcv_28{animation:sDaQaPcv_draw 78ms linear 1566ms forwards;}.sDaQaPcv_29{stroke-dasharray:162 164;stroke-dashoffset:163;}.start .sDaQaPcv_29{animation:sDaQaPcv_draw 59ms linear 1644ms forwards;}.sDaQaPcv_30{stroke-dasharray:879 881;stroke-dashoffset:880;}.start .sDaQaPcv_30{animation:sDaQaPcv_draw 321ms linear 1704ms forwards;}.sDaQaPcv_31{stroke-dasharray:46 48;stroke-dashoffset:47;}.start .sDaQaPcv_31{animation:sDaQaPcv_draw 17ms linear 2025ms forwards;}.sDaQaPcv_32{stroke-dasharray:470 472;stroke-dashoffset:471;}.start .sDaQaPcv_32{animation:sDaQaPcv_draw 171ms linear 2042ms forwards;}.sDaQaPcv_33{stroke-dasharray:459 461;stroke-dashoffset:460;}.start .sDaQaPcv_33{animation:sDaQaPcv_draw 167ms linear 2214ms forwards;}.sDaQaPcv_34{stroke-dasharray:540 542;stroke-dashoffset:541;}.start .sDaQaPcv_34{animation:sDaQaPcv_draw 197ms linear 2382ms forwards;}.sDaQaPcv_35{stroke-dasharray:333 335;stroke-dashoffset:334;}.start .sDaQaPcv_35{animation:sDaQaPcv_draw 121ms linear 2579ms forwards;}.sDaQaPcv_36{stroke-dasharray:537 539;stroke-dashoffset:538;}.start .sDaQaPcv_36{animation:sDaQaPcv_draw 196ms linear 2701ms forwards;}.sDaQaPcv_37{stroke-dasharray:333 335;stroke-dashoffset:334;}.start .sDaQaPcv_37{animation:sDaQaPcv_draw 121ms linear 2898ms forwards;}.sDaQaPcv_38{stroke-dasharray:333 335;stroke-dashoffset:334;}.start .sDaQaPcv_38{animation:sDaQaPcv_draw 121ms linear 3020ms forwards;}.sDaQaPcv_39{stroke-dasharray:272 274;stroke-dashoffset:273;}.start .sDaQaPcv_39{animation:sDaQaPcv_draw 99ms linear 3141ms forwards;}.sDaQaPcv_40{stroke-dasharray:204 206;stroke-dashoffset:205;}.start .sDaQaPcv_40{animation:sDaQaPcv_draw 74ms linear 3241ms forwards;}.sDaQaPcv_41{stroke-dasharray:71 73;stroke-dashoffset:72;}.start .sDaQaPcv_41{animation:sDaQaPcv_draw 26ms linear 3316ms forwards;}.sDaQaPcv_42{stroke-dasharray:126 128;stroke-dashoffset:127;}.start .sDaQaPcv_42{animation:sDaQaPcv_draw 46ms linear 3342ms forwards;}.sDaQaPcv_43{stroke-dasharray:301 303;stroke-dashoffset:302;}.start .sDaQaPcv_43{animation:sDaQaPcv_draw 110ms linear 3389ms forwards;}.sDaQaPcv_44{stroke-dasharray:105 107;stroke-dashoffset:106;}.start .sDaQaPcv_44{animation:sDaQaPcv_draw 38ms linear 3499ms forwards;}.sDaQaPcv_45{stroke-dasharray:270 272;stroke-dashoffset:271;}.start .sDaQaPcv_45{animation:sDaQaPcv_draw 98ms linear 3537ms forwards;}.sDaQaPcv_46{stroke-dasharray:514 516;stroke-dashoffset:515;}.start .sDaQaPcv_46{animation:sDaQaPcv_draw 187ms linear 3636ms forwards;}.sDaQaPcv_47{stroke-dasharray:317 319;stroke-dashoffset:318;}.start .sDaQaPcv_47{animation:sDaQaPcv_draw 116ms linear 3824ms forwards;}.sDaQaPcv_48{stroke-dasharray:94 96;stroke-dashoffset:95;}.start .sDaQaPcv_48{animation:sDaQaPcv_draw 34ms linear 3940ms forwards;}.sDaQaPcv_49{stroke-dasharray:213 215;stroke-dashoffset:214;}.start .sDaQaPcv_49{animation:sDaQaPcv_draw 78ms linear 3975ms forwards;}.sDaQaPcv_50{stroke-dasharray:213 215;stroke-dashoffset:214;}.start .sDaQaPcv_50{animation:sDaQaPcv_draw 78ms linear 4053ms forwards;}.sDaQaPcv_51{stroke-dasharray:0 2;stroke-dashoffset:1;}.start .sDaQaPcv_51{animation:sDaQaPcv_draw 0ms linear 4131ms forwards;}.sDaQaPcv_52{stroke-dasharray:912 914;stroke-dashoffset:913;}.start .sDaQaPcv_52{animation:sDaQaPcv_draw 333ms linear 4132ms forwards;}.sDaQaPcv_53{stroke-dasharray:401 403;stroke-dashoffset:402;}.start .sDaQaPcv_53{animation:sDaQaPcv_draw 146ms linear 4465ms forwards;}.sDaQaPcv_54{stroke-dasharray:440 442;stroke-dashoffset:441;}.start .sDaQaPcv_54{animation:sDaQaPcv_draw 160ms linear 4612ms forwards;}.sDaQaPcv_55{stroke-dasharray:271 273;stroke-dashoffset:272;}.start .sDaQaPcv_55{animation:sDaQaPcv_draw 99ms linear 4772ms forwards;}.sDaQaPcv_56{stroke-dasharray:108 110;stroke-dashoffset:109;}.start .sDaQaPcv_56{animation:sDaQaPcv_draw 39ms linear 4872ms forwards;}.sDaQaPcv_57{stroke-dasharray:126 128;stroke-dashoffset:127;}.start .sDaQaPcv_57{animation:sDaQaPcv_draw 46ms linear 4912ms forwards;}.sDaQaPcv_58{stroke-dasharray:262 264;stroke-dashoffset:263;}.start .sDaQaPcv_58{animation:sDaQaPcv_draw 95ms linear 4958ms forwards;}.sDaQaPcv_59{stroke-dasharray:181 183;stroke-dashoffset:182;}.start .sDaQaPcv_59{animation:sDaQaPcv_draw 66ms linear 5054ms forwards;}.sDaQaPcv_60{stroke-dasharray:279 281;stroke-dashoffset:280;}.start .sDaQaPcv_60{animation:sDaQaPcv_draw 102ms linear 5120ms forwards;}.sDaQaPcv_61{stroke-dasharray:177 179;stroke-dashoffset:178;}.start .sDaQaPcv_61{animation:sDaQaPcv_draw 64ms linear 5222ms forwards;}.sDaQaPcv_62{stroke-dasharray:207 209;stroke-dashoffset:208;}.start .sDaQaPcv_62{animation:sDaQaPcv_draw 75ms linear 5287ms forwards;}.sDaQaPcv_63{stroke-dasharray:232 234;stroke-dashoffset:233;}.start .sDaQaPcv_63{animation:sDaQaPcv_draw 85ms linear 5363ms forwards;}.sDaQaPcv_64{stroke-dasharray:116 118;stroke-dashoffset:117;}.start .sDaQaPcv_64{animation:sDaQaPcv_draw 42ms linear 5448ms forwards;}.sDaQaPcv_65{stroke-dasharray:48 50;stroke-dashoffset:49;}.start .sDaQaPcv_65{animation:sDaQaPcv_draw 17ms linear 5491ms forwards;}.sDaQaPcv_66{stroke-dasharray:59 61;stroke-dashoffset:60;}.start .sDaQaPcv_66{animation:sDaQaPcv_draw 21ms linear 5509ms forwards;}.sDaQaPcv_67{stroke-dasharray:66 68;stroke-dashoffset:67;}.start .sDaQaPcv_67{animation:sDaQaPcv_draw 24ms linear 5531ms forwards;}.sDaQaPcv_68{stroke-dasharray:117 119;stroke-dashoffset:118;}.start .sDaQaPcv_68{animation:sDaQaPcv_draw 43ms linear 5555ms forwards;}.sDaQaPcv_69{stroke-dasharray:44 46;stroke-dashoffset:45;}.start .sDaQaPcv_69{animation:sDaQaPcv_draw 16ms linear 5598ms forwards;}.sDaQaPcv_70{stroke-dasharray:66 68;stroke-dashoffset:67;}.start .sDaQaPcv_70{animation:sDaQaPcv_draw 24ms linear 5615ms forwards;}.sDaQaPcv_71{stroke-dasharray:69 71;stroke-dashoffset:70;}.start .sDaQaPcv_71{animation:sDaQaPcv_draw 25ms linear 5639ms forwards;}.sDaQaPcv_72{stroke-dasharray:126 128;stroke-dashoffset:127;}.start .sDaQaPcv_72{animation:sDaQaPcv_draw 46ms linear 5665ms forwards;}.sDaQaPcv_73{stroke-dasharray:59 61;stroke-dashoffset:60;}.start .sDaQaPcv_73{animation:sDaQaPcv_draw 21ms linear 5711ms forwards;}.sDaQaPcv_74{stroke-dasharray:48 50;stroke-dashoffset:49;}.start .sDaQaPcv_74{animation:sDaQaPcv_draw 17ms linear 5733ms forwards;}.sDaQaPcv_75{stroke-dasharray:91 93;stroke-dashoffset:92;}.start .sDaQaPcv_75{animation:sDaQaPcv_draw 33ms linear 5751ms forwards;}.sDaQaPcv_76{stroke-dasharray:44 46;stroke-dashoffset:45;}.start .sDaQaPcv_76{animation:sDaQaPcv_draw 16ms linear 5785ms forwards;}.sDaQaPcv_77{stroke-dasharray:44 46;stroke-dashoffset:45;}.start .sDaQaPcv_77{animation:sDaQaPcv_draw 16ms linear 5801ms forwards;}.sDaQaPcv_78{stroke-dasharray:50 52;stroke-dashoffset:51;}.start .sDaQaPcv_78{animation:sDaQaPcv_draw 18ms linear 5817ms forwards;}.sDaQaPcv_79{stroke-dasharray:48 50;stroke-dashoffset:49;}.start .sDaQaPcv_79{animation:sDaQaPcv_draw 17ms linear 5836ms forwards;}.sDaQaPcv_80{stroke-dasharray:44 46;stroke-dashoffset:45;}.start .sDaQaPcv_80{animation:sDaQaPcv_draw 16ms linear 5854ms forwards;}.sDaQaPcv_81{stroke-dasharray:85 87;stroke-dashoffset:86;}.start .sDaQaPcv_81{animation:sDaQaPcv_draw 31ms linear 5870ms forwards;}.sDaQaPcv_82{stroke-dasharray:45 47;stroke-dashoffset:46;}.start .sDaQaPcv_82{animation:sDaQaPcv_draw 16ms linear 5902ms forwards;}.sDaQaPcv_83{stroke-dasharray:38 40;stroke-dashoffset:39;}.start .sDaQaPcv_83{animation:sDaQaPcv_draw 14ms linear 5918ms forwards;}.sDaQaPcv_84{stroke-dasharray:47 49;stroke-dashoffset:48;}.start .sDaQaPcv_84{animation:sDaQaPcv_draw 17ms linear 5933ms forwards;}.sDaQaPcv_85{stroke-dasharray:36 38;stroke-dashoffset:37;}.start .sDaQaPcv_85{animation:sDaQaPcv_draw 13ms linear 5950ms forwards;}.sDaQaPcv_86{stroke-dasharray:42 44;stroke-dashoffset:43;}.start .sDaQaPcv_86{animation:sDaQaPcv_draw 15ms linear 5964ms forwards;}.sDaQaPcv_87{stroke-dasharray:54 56;stroke-dashoffset:55;}.start .sDaQaPcv_87{animation:sDaQaPcv_draw 20ms linear 5979ms forwards;}@keyframes sDaQaPcv_draw{100%{stroke-dashoffset:0;}}@keyframes sDaQaPcv_fade{0%{stroke-opacity:1;}96.07843137254902%{stroke-opacity:1;}100%{stroke-opacity:0;}}</style></svg>