<svg xmlns="http://www.w3.org/2000/svg" viewBox="0 0 205.19 430.93"><defs><style>.cls-1{fill:#003979;fill-rule:evenodd;}.cls-2{fill:#175280;}.cls-3{fill:none;stroke:#1d1d1d;stroke-miterlimit:10;}.cls-4{fill:#a9a9a8;}.cls-5{fill:#1e5fa6;}.cls-6{fill:#4d4c4c;}.cls-7{fill:#787777;}.cls-8{fill:#e9d1b1;}.cls-9{fill:#d4d4d4;}.cls-10{fill:#fff;}</style></defs><title>bot-abilities</title><g id="Capa_2" data-name="Capa 2"><g id="Capa_1-2" data-name="Capa 1"><path class="cls-1" d="M205.19,420.43c0,5.8-45.93,10.5-102.6,10.5S0,426.23,0,420.43s45.93-10.5,102.59-10.5,102.6,4.7,102.6,10.5"/><polygon class="cls-2" points="153.32 185.76 43.09 185.76 37.33 178.86 161.59 178.86 153.32 185.76"/><polygon class="cls-3" points="153.32 185.76 43.09 185.76 37.33 178.86 161.59 178.86 153.32 185.76"/><path class="cls-4" d="M193.74,238.69l-8.54,7.17-14.3,12-11.59-12.19-15.83-16.61-.48-.5L129.44,214.3l8.18-6.86,5.39-4.53,12.09-10.13,0,0,.11.16s0,0,0,0l3.32,3.92s0,0,0,0Z"/><path class="cls-3" d="M193.74,238.69l-8.54,7.17-14.3,12-11.59-12.19-15.83-16.61-.48-.5L129.44,214.3l8.18-6.86,5.39-4.53,12.09-10.13,0,0,.11.16s0,0,0,0l3.32,3.92s0,0,0,0Z"/><polygon class="cls-5" points="196.91 249.21 189.28 310.76 188.8 314.66 188.78 314.66 186.23 314.28 179.65 313.27 173.09 312.27 173.05 310.86 172.98 309.22 170.91 257.86 184.59 253.3 196.91 249.21"/><polygon class="cls-3" points="196.91 249.21 189.28 310.76 188.8 314.66 188.78 314.66 186.23 314.28 179.65 313.27 173.09 312.27 173.05 310.86 172.98 309.22 170.91 257.86 184.59 253.3 196.91 249.21"/><polygon class="cls-6" points="190.57 312.43 190.57 320.25 181.02 318.41 170.33 316.33 170.33 308.5 174.77 309.37 181.66 310.69 190.57 312.43"/><polygon class="cls-3" points="190.57 312.43 190.57 320.25 181.02 318.41 170.33 316.33 170.33 308.5 174.77 309.37 181.66 310.69 190.57 312.43"/><path class="cls-6" d="M193.82,329A16.19,16.19,0,0,1,185,341.4a4.65,4.65,0,0,1-2.05.48,4.58,4.58,0,0,1-2-8.68,7,7,0,0,0,3.85-5.4,7.14,7.14,0,0,0-.07-2.18,6.74,6.74,0,0,0-1.37-3,6.93,6.93,0,0,0-2.48-2,7.1,7.1,0,0,0-2.18-.64,7,7,0,0,0-5.55,12.23A4.57,4.57,0,1,1,167,339a16.14,16.14,0,0,1,3.33-26.41,15.54,15.54,0,0,1,4.51-1.57,17,17,0,0,1,5-.14,12.16,12.16,0,0,1,1.8.34,16.43,16.43,0,0,1,9,5.8,16,16,0,0,1,3.37,9.29,14.52,14.52,0,0,1-.12,2.67"/><path class="cls-3" d="M193.82,329A16.19,16.19,0,0,1,185,341.4a4.65,4.65,0,0,1-2.05.48,4.58,4.58,0,0,1-2-8.68,7,7,0,0,0,3.85-5.4,7.14,7.14,0,0,0-.07-2.18,6.74,6.74,0,0,0-1.37-3,6.93,6.93,0,0,0-2.48-2,7.1,7.1,0,0,0-2.18-.64,7,7,0,0,0-5.55,12.23A4.57,4.57,0,1,1,167,339a16.14,16.14,0,0,1,3.33-26.41,15.54,15.54,0,0,1,4.51-1.57,17,17,0,0,1,5-.14,12.16,12.16,0,0,1,1.8.34,16.43,16.43,0,0,1,9,5.8,16,16,0,0,1,3.37,9.29A14.52,14.52,0,0,1,193.82,329Z"/><polygon class="cls-4" points="158.24 286.38 151.46 289.79 158.07 298.05 158.24 298.27 151.74 304.78 151.46 305.07 158.24 313.71 158.09 313.85 150.84 320.51 150.89 320.55 158.24 328.07 152.2 334.77 151.46 335.58 158.24 344.46 150.84 351 150.97 351.17 158.09 360.05 158.24 360.24 150.84 366.28 151.26 366.75 158.24 374.66 157.81 375.04 150.21 381.7 150.33 381.77 158.24 386.46 158.24 391.01 109.34 391.01 109.34 386.46 117.25 381.77 117.37 381.7 109.76 375.04 109.34 374.66 116.32 366.75 116.74 366.28 109.34 360.24 109.49 360.05 116.62 351.17 116.74 351 109.34 344.46 116.11 335.58 115.39 334.77 109.34 328.07 116.69 320.55 116.74 320.51 109.49 313.85 109.34 313.71 116.11 305.07 115.84 304.78 109.34 298.27 109.51 298.05 116.11 289.79 109.34 286.38 109.34 278.19 158.24 278.19 158.24 286.38"/><polygon class="cls-3" points="158.24 286.38 151.46 289.79 158.07 298.05 158.24 298.27 151.74 304.78 151.46 305.07 158.24 313.71 158.09 313.85 150.84 320.51 150.89 320.55 158.24 328.07 152.2 334.77 151.46 335.58 158.24 344.46 150.84 351 150.97 351.17 158.09 360.05 158.24 360.24 150.84 366.28 151.26 366.75 158.24 374.66 157.81 375.04 150.21 381.7 150.33 381.77 158.24 386.46 158.24 391.01 109.34 391.01 109.34 386.46 117.25 381.77 117.37 381.7 109.76 375.04 109.34 374.66 116.32 366.75 116.74 366.28 109.34 360.24 109.49 360.05 116.62 351.17 116.74 351 109.34 344.46 116.11 335.58 115.39 334.77 109.34 328.07 116.69 320.55 116.74 320.51 109.49 313.85 109.34 313.71 116.11 305.07 115.84 304.78 109.34 298.27 109.51 298.05 116.11 289.79 109.34 286.38 109.34 278.19 158.24 278.19 158.24 286.38"/><polygon class="cls-7" points="158.24 298.27 151.74 304.78 115.84 304.78 109.34 298.27 109.51 298.05 158.07 298.05 158.24 298.27"/><polygon class="cls-3" points="158.24 298.27 151.74 304.78 115.84 304.78 109.34 298.27 109.51 298.05 158.07 298.05 158.24 298.27"/><polygon class="cls-7" points="150.84 320.51 150.89 320.55 116.69 320.55 116.74 320.51 109.49 313.85 158.09 313.85 150.84 320.51"/><polygon class="cls-3" points="150.84 320.51 150.89 320.55 116.69 320.55 116.74 320.51 109.49 313.85 158.09 313.85 150.84 320.51"/><polygon class="cls-7" points="158.24 328.07 152.2 334.77 115.39 334.77 109.34 328.07 158.24 328.07"/><polygon class="cls-3" points="158.24 328.07 152.2 334.77 115.39 334.77 109.34 328.07 158.24 328.07"/><polygon class="cls-7" points="150.84 351 150.97 351.17 116.62 351.17 116.74 351 109.34 344.46 158.24 344.46 150.84 351"/><polygon class="cls-3" points="150.84 351 150.97 351.17 116.62 351.17 116.74 351 109.34 344.46 158.24 344.46 150.84 351"/><polygon class="cls-7" points="150.84 366.28 151.26 366.75 116.32 366.75 116.74 366.28 109.34 360.24 109.49 360.05 158.09 360.05 158.24 360.24 150.84 366.28"/><polygon class="cls-3" points="150.84 366.28 151.26 366.75 116.32 366.75 116.74 366.28 109.34 360.24 109.49 360.05 158.09 360.05 158.24 360.24 150.84 366.28"/><polygon class="cls-7" points="150.21 381.7 150.33 381.77 117.25 381.77 117.37 381.7 109.76 375.04 157.81 375.04 150.21 381.7"/><polygon class="cls-3" points="150.21 381.7 150.33 381.77 117.25 381.77 117.37 381.7 109.76 375.04 157.81 375.04 150.21 381.7"/><rect class="cls-6" x="99.64" y="417.06" width="67.17" height="6.75"/><rect class="cls-3" x="99.64" y="417.06" width="67.17" height="6.75"/><path class="cls-5" d="M133.79,386.33v30.74H99.64v-3.41A27.31,27.31,0,0,1,127,386.33Z"/><path class="cls-3" d="M133.79,386.33v30.74H99.64v-3.41A27.31,27.31,0,0,1,127,386.33Z"/><polygon class="cls-4" points="89.18 286.38 82.4 289.79 89.01 298.05 89.18 298.27 82.68 304.78 82.4 305.07 89.18 313.71 89.03 313.85 81.78 320.51 81.83 320.55 89.18 328.07 83.13 334.77 82.4 335.58 89.18 344.46 81.78 351 81.9 351.17 89.03 360.05 89.18 360.24 81.78 366.28 82.2 366.75 89.18 374.66 88.76 375.04 81.15 381.7 81.27 381.77 89.18 386.46 89.18 391.01 40.28 391.01 40.28 386.46 48.19 381.77 48.31 381.7 40.7 375.04 40.28 374.66 47.26 366.75 47.68 366.28 40.28 360.24 40.43 360.05 47.56 351.17 47.68 351 40.28 344.46 47.06 335.58 46.33 334.77 40.28 328.07 47.63 320.55 47.68 320.51 40.43 313.85 40.28 313.71 47.06 305.07 46.78 304.78 40.28 298.27 40.45 298.05 47.06 289.79 40.28 286.38 40.28 278.19 89.18 278.19 89.18 286.38"/><polygon class="cls-3" points="89.18 286.38 82.4 289.79 89.01 298.05 89.18 298.27 82.68 304.78 82.4 305.07 89.18 313.71 89.03 313.85 81.78 320.51 81.83 320.55 89.18 328.07 83.13 334.77 82.4 335.58 89.18 344.46 81.78 351 81.9 351.17 89.03 360.05 89.18 360.24 81.78 366.28 82.2 366.75 89.18 374.66 88.76 375.04 81.15 381.7 81.27 381.77 89.18 386.46 89.18 391.01 40.28 391.01 40.28 386.46 48.19 381.77 48.31 381.7 40.7 375.04 40.28 374.66 47.26 366.75 47.68 366.28 40.28 360.24 40.43 360.05 47.56 351.17 47.68 351 40.28 344.46 47.06 335.58 46.33 334.77 40.28 328.07 47.63 320.55 47.68 320.51 40.43 313.85 40.28 313.71 47.06 305.07 46.78 304.78 40.28 298.27 40.45 298.05 47.06 289.79 40.28 286.38 40.28 278.19 89.18 278.19 89.18 286.38"/><polygon class="cls-7" points="89.18 298.27 82.68 304.78 46.78 304.78 40.28 298.27 40.45 298.05 89.01 298.05 89.18 298.27"/><polygon class="cls-3" points="89.18 298.27 82.68 304.78 46.78 304.78 40.28 298.27 40.45 298.05 89.01 298.05 89.18 298.27"/><polygon class="cls-7" points="81.78 320.51 81.83 320.55 47.63 320.55 47.68 320.51 40.43 313.85 89.03 313.85 81.78 320.51"/><polygon class="cls-3" points="81.78 320.51 81.83 320.55 47.63 320.55 47.68 320.51 40.43 313.85 89.03 313.85 81.78 320.51"/><polygon class="cls-7" points="89.18 328.07 83.13 334.77 46.33 334.77 40.28 328.07 89.18 328.07"/><polygon class="cls-3" points="89.18 328.07 83.13 334.77 46.33 334.77 40.28 328.07 89.18 328.07"/><polygon class="cls-7" points="81.78 351 81.9 351.17 47.56 351.17 47.68 351 40.28 344.46 89.18 344.46 81.78 351"/><polygon class="cls-3" points="81.78 351 81.9 351.17 47.56 351.17 47.68 351 40.28 344.46 89.18 344.46 81.78 351"/><polygon class="cls-7" points="81.78 366.28 82.2 366.75 47.26 366.75 47.68 366.28 40.28 360.24 40.43 360.05 89.03 360.05 89.18 360.24 81.78 366.28"/><polygon class="cls-3" points="81.78 366.28 82.2 366.75 47.26 366.75 47.68 366.28 40.28 360.24 40.43 360.05 89.03 360.05 89.18 360.24 81.78 366.28"/><polygon class="cls-7" points="81.15 381.7 81.27 381.77 48.19 381.77 48.31 381.7 40.7 375.04 88.76 375.04 81.15 381.7"/><polygon class="cls-3" points="81.15 381.7 81.27 381.77 48.19 381.77 48.31 381.7 40.7 375.04 88.76 375.04 81.15 381.7"/><rect class="cls-6" x="77.94" y="181.29" width="43.76" height="14.23"/><rect class="cls-3" x="77.94" y="181.29" width="43.76" height="14.23"/><polygon class="cls-4" points="32.67 259.72 9.09 241.49 45.8 194.02 72.34 214.54 32.67 259.72"/><polygon class="cls-3" points="32.67 259.72 9.09 241.49 45.8 194.02 72.34 214.54 32.67 259.72"/><path class="cls-5" d="M159.32,200V311.36h-120V200c0-4,3.21-7.42,8-9.22A21.26,21.26,0,0,1,55,189.4h88.61a22.06,22.06,0,0,1,6.67,1c5.33,1.68,9,5.35,9,9.6"/><path class="cls-3" d="M159.32,200V311.36h-120V200c0-4,3.21-7.42,8-9.22A21.26,21.26,0,0,1,55,189.4h88.61a22.06,22.06,0,0,1,6.67,1C155.63,192.08,159.32,195.74,159.32,200Z"/><path class="cls-2" d="M159.32,200c0-4.26-3.69-7.92-9-9.6v-1h5.83c1.75,0,3.19,4.73,3.19,10.61"/><path class="cls-3" d="M159.32,200c0-4.26-3.69-7.92-9-9.6v-1h5.83C157.88,189.4,159.32,194.13,159.32,200Z"/><path class="cls-2" d="M159.32,200V311.36h-9v-121c5.33,1.68,9,5.35,9,9.6"/><path class="cls-3" d="M159.32,200V311.36h-9v-121C155.63,192.08,159.32,195.74,159.32,200Z"/><path class="cls-2" d="M48.12,197.89V309.24H39.33V200c0-4,3.21-7.42,8-9.22a28.34,28.34,0,0,1,.82,7.1"/><path class="cls-3" d="M48.12,197.89V309.24H39.33V200c0-4,3.21-7.42,8-9.22A28.34,28.34,0,0,1,48.12,197.89Z"/><path class="cls-8" d="M99.82,78.67a34,34,0,1,1-34,34,34,34,0,0,1,34-34"/><circle class="cls-3" cx="99.82" cy="112.64" r="33.97"/><path class="cls-6" d="M99.82,70.18a42.46,42.46,0,1,0,42.46,42.46A42.5,42.5,0,0,0,99.82,70.18m0,82.3a39.85,39.85,0,1,1,39.85-39.84,39.9,39.9,0,0,1-39.85,39.84"/><path class="cls-3" d="M99.82,70.18a42.46,42.46,0,1,0,42.46,42.46A42.5,42.5,0,0,0,99.82,70.18Zm0,82.3a39.85,39.85,0,1,1,39.85-39.84A39.9,39.9,0,0,1,99.82,152.48Z"/><path class="cls-6" d="M104.39,102.84a8.78,8.78,0,0,1,3.45-7,18.6,18.6,0,1,0,10.6,16.78,17.86,17.86,0,0,0-.2-2.56,8.72,8.72,0,0,1-5,1.58,8.82,8.82,0,0,1-8.82-8.82"/><path class="cls-3" d="M104.39,102.84a8.78,8.78,0,0,1,3.45-7,18.6,18.6,0,1,0,10.6,16.78,17.86,17.86,0,0,0-.2-2.56,8.72,8.72,0,0,1-5,1.58A8.82,8.82,0,0,1,104.39,102.84Z"/><polygon class="cls-2" points="56.14 264.12 54.51 260.4 54.51 205.56 144.15 205.56 144.15 260.31 142.47 264.12 56.14 264.12"/><polygon class="cls-3" points="56.14 264.12 54.51 260.4 54.51 205.56 144.15 205.56 144.15 260.31 142.47 264.12 56.14 264.12"/><rect class="cls-6" x="55.64" y="270.4" width="87.37" height="3.22"/><rect class="cls-3" x="55.64" y="270.4" width="87.37" height="3.22"/><rect class="cls-6" x="55.64" y="201.48" width="87.37" height="58.57"/><rect class="cls-3" x="55.64" y="201.48" width="87.37" height="58.57"/><rect class="cls-6" x="55.64" y="283.07" width="87.37" height="3.22"/><rect class="cls-3" x="55.64" y="283.07" width="87.37" height="3.22"/><rect class="cls-6" x="55.64" y="294.83" width="87.37" height="3.22"/><rect class="cls-3" x="55.64" y="294.83" width="87.37" height="3.22"/><rect class="cls-6" x="30.58" y="417.06" width="67.16" height="6.75"/><rect class="cls-3" x="30.58" y="417.06" width="67.16" height="6.75"/><rect class="cls-6" x="98.51" y="0.5" width="2.61" height="52.69"/><rect class="cls-3" x="98.51" y="0.5" width="2.61" height="52.69"/><polygon class="cls-6" points="32.67 259.72 9.09 241.49 6.33 252.12 32.67 259.72"/><polygon class="cls-3" points="32.67 259.72 9.09 241.49 6.33 252.12 32.67 259.72"/><polygon class="cls-5" points="6.33 252.12 17.07 317.2 32.67 314.19 32.67 259.72 6.33 252.12"/><polygon class="cls-3" points="6.33 252.12 17.07 317.2 32.67 314.19 32.67 259.72 6.33 252.12"/><polygon class="cls-6" points="34.88 317.77 14.63 321.69 14.63 313.85 34.88 309.94 34.88 317.77"/><polygon class="cls-3" points="34.88 317.77 14.63 321.69 14.63 313.85 34.88 309.94 34.88 317.77"/><path class="cls-6" d="M22.24,343.32a4.47,4.47,0,0,1-2-.49,16.19,16.19,0,1,1,18-2.41,4.57,4.57,0,1,1-6.09-6.82,7,7,0,0,0-5.57-12.22,7,7,0,0,0-2.25,13.27,4.57,4.57,0,0,1-2.05,8.66"/><path class="cls-3" d="M22.24,343.32a4.47,4.47,0,0,1-2-.49,16.19,16.19,0,1,1,18-2.41,4.57,4.57,0,1,1-6.09-6.82,7,7,0,0,0-5.57-12.22,7,7,0,0,0-2.25,13.27,4.57,4.57,0,0,1-2.05,8.66Z"/><polygon class="cls-4" points="159.31 309.21 39.34 309.21 39.34 314.74 90.54 314.74 87.32 325.19 111.33 325.19 108.11 314.74 159.31 314.74 159.31 309.21"/><polygon class="cls-3" points="159.31 309.21 39.34 309.21 39.34 314.74 90.54 314.74 87.32 325.19 111.33 325.19 108.11 314.74 159.31 314.74 159.31 309.21"/><path class="cls-5" d="M97.74,413.65v3.41H30.58v-3.41A27.31,27.31,0,0,1,57.9,386.33H70.42a27.31,27.31,0,0,1,27.32,27.32"/><path class="cls-3" d="M97.74,413.65v3.41H30.58v-3.41A27.31,27.31,0,0,1,57.9,386.33H70.42A27.31,27.31,0,0,1,97.74,413.65Z"/><polygon class="cls-7" points="109.34 328.07 89.18 328.07 87.32 325.19 111.3 325.19 109.34 328.07"/><polygon class="cls-3" points="109.34 328.07 89.18 328.07 87.32 325.19 111.3 325.19 109.34 328.07"/><path class="cls-2" d="M166.81,413.66v3.41h-33V386.33h5.7a27.31,27.31,0,0,1,27.32,27.32"/><path class="cls-3" d="M166.81,413.66v3.41h-33V386.33h5.7A27.31,27.31,0,0,1,166.81,413.66Z"/><path class="cls-2" d="M97.74,413.66v3.41h-33V386.33h5.69a27.31,27.31,0,0,1,27.32,27.32"/><path class="cls-3" d="M97.74,413.66v3.41h-33V386.33h5.69A27.31,27.31,0,0,1,97.74,413.66Z"/><rect class="cls-5" x="37.33" y="54.9" width="123.96" height="123.96"/><rect class="cls-3" x="37.33" y="54.9" width="123.96" height="123.96"/><path class="cls-9" d="M141.75,113.93A40.77,40.77,0,0,1,70.48,141,40.76,40.76,0,0,0,128,83.46a40.46,40.46,0,0,1,13.73,30.47"/><path class="cls-3" d="M141.75,113.93A40.77,40.77,0,0,1,70.48,141,40.76,40.76,0,0,0,128,83.46a40.46,40.46,0,0,1,13.73,30.47"/><path class="cls-10" d="M138.36,110.54A40.76,40.76,0,0,1,70.47,141,40.76,40.76,0,0,1,128,83.47a40.46,40.46,0,0,1,10.34,27.08"/><path class="cls-3" d="M138.36,110.54A40.76,40.76,0,0,1,70.47,141,40.76,40.76,0,0,1,128,83.47a40.46,40.46,0,0,1,10.34,27.08"/><path d="M124.39,113.31A23.43,23.43,0,1,1,101,89.89a23.44,23.44,0,0,1,23.43,23.42"/><path class="cls-3" d="M124.39,113.31A23.43,23.43,0,1,1,101,89.89a23.44,23.44,0,0,1,23.43,23.42"/><path class="cls-10" d="M93.46,96.4a9.27,9.27,0,1,1-9.27-9.28,9.28,9.28,0,0,1,9.27,9.28"/><path class="cls-3" d="M93.46,96.4a9.27,9.27,0,1,1-9.27-9.28,9.28,9.28,0,0,1,9.27,9.28"/><polygon class="cls-6" points="196.91 249.21 184.59 253.3 170.91 257.86 185.2 245.86 193.74 238.69 195.18 243.49 196.91 249.21"/><polygon class="cls-3" points="196.91 249.21 184.59 253.3 170.91 257.86 185.2 245.86 193.74 238.69 195.18 243.49 196.91 249.21"/><polygon class="cls-2" points="196.91 249.21 189.28 310.76 179.85 310.76 179.88 310.54 184.59 253.3 196.91 249.21"/><polygon class="cls-3" points="196.91 249.21 189.28 310.76 179.85 310.76 179.88 310.54 184.59 253.3 196.91 249.21"/></g></g></svg>