<svg xmlns="http://www.w3.org/2000/svg" viewBox="0 0 308.63 541.11"><defs><style>.cls-1{opacity:0.5;}.cls-2{fill:none;stroke:#fff;stroke-miterlimit:10;}.cls-3{fill:#fff;}.cls-4{isolation:isolate;}</style></defs><title>bot-inicio</title><g id="Capa_2" data-name="Capa 2"><g id="Capa_4" data-name="Capa 4"><g class="cls-1"><polygon class="cls-2" points="214.25 235.19 205.98 242.09 95.75 242.09 89.99 235.19 214.25 235.19"/><path class="cls-2" d="M207.9,249.2l-.12-.09,0,0Z"/><path class="cls-2" d="M246.4,295l-8.54,7.17-14.3,12L212,302V256.34c0-.13,0-.27,0-.4a7.44,7.44,0,0,0-.72-2.8l0,0s0,0,0,0l.59.7Z"/><polygon class="cls-2" points="249.57 305.54 241.94 367.1 241.77 368.48 234.32 367.03 227.43 365.7 225.63 365.35 223.56 314.19 237.25 309.64 249.57 305.54"/><polygon class="cls-2" points="243.23 368.76 243.23 376.59 233.68 374.74 222.99 372.67 222.99 364.84 225.63 365.35 227.43 365.7 234.32 367.03 241.77 368.48 243.23 368.76"/><path class="cls-2" d="M246.6,382.64a14.78,14.78,0,0,1-.12,2.66,16.18,16.18,0,0,1-8.81,12.43,4.58,4.58,0,0,1-4.1-8.19,7,7,0,0,0,3.85-5.4,6.89,6.89,0,0,0-.07-2.18,6.63,6.63,0,0,0-1.37-3,6.74,6.74,0,0,0-2.48-2,7,7,0,0,0-7.74,11.58,4.57,4.57,0,1,1-6.1,6.81A16.15,16.15,0,0,1,223,368.91v3.76l10.69,2.07,9.55,1.85v-3.24A16.06,16.06,0,0,1,246.6,382.64Z"/><path class="cls-2" d="M210.9,400.79l-7.41,6.54.14.17,7.12,8.89.15.18-7.41,6,.43.47,7,7.91-.43.38-7.6,6.66.12.06,7.91,4.7v4.54h-3.47a27.18,27.18,0,0,0-15.28-4.67H179.63a27.18,27.18,0,0,0-15.28,4.67H162V442.8l7.91-4.7L170,438l-7.61-6.66L162,431l7-7.91.42-.47-7.4-6,.15-.18,7.13-8.89.12-.17-7.4-6.54,6.77-8.88-.72-.8-6-6.71,7.35-7.51.05,0-7.13-6.55-.12-.11h48.6l-.12.11-7.14,6.55.06,0,7.35,7.51-6,6.71-.74.8Z"/><polygon class="cls-2" points="210.63 370.29 203.49 376.84 203.55 376.89 169.35 376.89 169.4 376.84 162.27 370.29 162.15 370.18 210.75 370.18 210.63 370.29"/><polygon class="cls-2" points="210.9 384.4 204.86 391.1 168.05 391.1 162 384.4 210.9 384.4"/><polygon class="cls-2" points="203.5 407.33 203.63 407.5 169.28 407.5 169.41 407.33 162 400.79 210.9 400.79 203.5 407.33"/><polygon class="cls-2" points="203.5 422.61 203.93 423.08 168.98 423.08 169.41 422.61 162 416.57 162.15 416.38 210.75 416.38 210.9 416.57 203.5 422.61"/><polygon class="cls-2" points="202.87 438.03 202.99 438.1 169.91 438.1 170.03 438.03 162.42 431.37 210.47 431.37 202.87 438.03"/><rect class="cls-2" x="152.3" y="473.39" width="67.17" height="6.75"/><path class="cls-2" d="M186.45,442.67V473.4H152.3V470a27.33,27.33,0,0,1,27.33-27.32Z"/><path class="cls-2" d="M141.84,400.79l-7.4,6.54.12.17,7.13,8.89.15.18-7.4,6,.42.47,7,7.91-.42.38L133.81,438l.12.06,7.91,4.7v4.54h-3.45a27.18,27.18,0,0,0-15.31-4.68H110.56a27.18,27.18,0,0,0-15.31,4.68H92.94V442.8l7.9-4.7L101,438l-7.61-6.66-.42-.38,7-7.91.42-.47-7.4-6,.15-.18,7.13-8.89.12-.17-7.4-6.54,6.78-8.88-.73-.8-6.05-6.71,7.35-7.51,0,0-7.13-6.55-.12-.11h48.6l-.12.11-7.13,6.55.05,0,7.35,7.51-6,6.71-.73.8Z"/><polygon class="cls-2" points="141.57 370.29 134.44 376.84 134.49 376.89 100.29 376.89 100.34 376.84 93.21 370.29 93.09 370.18 141.69 370.18 141.57 370.29"/><polygon class="cls-2" points="141.84 384.4 135.79 391.1 98.99 391.1 92.94 384.4 141.84 384.4"/><polygon class="cls-2" points="134.44 407.33 134.56 407.5 100.22 407.5 100.34 407.33 92.94 400.79 141.84 400.79 134.44 407.33"/><polygon class="cls-2" points="134.44 422.61 134.86 423.08 99.92 423.08 100.34 422.61 92.94 416.57 93.09 416.38 141.69 416.38 141.84 416.57 134.44 422.61"/><polygon class="cls-2" points="133.81 438.03 133.93 438.1 100.85 438.1 100.97 438.03 93.36 431.37 141.42 431.37 133.81 438.03"/><rect class="cls-2" x="130.59" y="242.09" width="43.77" height="3.64"/><path class="cls-2" d="M92.18,254.7a6.87,6.87,0,0,0-.19,1.64v45.23L79.92,313.64,57.57,293.93Z"/><path class="cls-2" d="M207.93,249.22a0,0,0,0,1,0,0l0,0Z"/><path class="cls-2" d="M211.25,253.14l-3.3-3.89a0,0,0,0,0,0,0A10.43,10.43,0,0,1,211.25,253.14Z"/><path class="cls-2" d="M207.81,249.07l.09.13-.12-.09Z"/><path class="cls-2" d="M212,255.94a7.44,7.44,0,0,0-.72-2.8l0,0s0,0,0,0l.59.7C211.94,254.56,212,255.24,212,255.94Z"/><path class="cls-2" d="M212,256.34V367.69h-9v-121a16.82,16.82,0,0,1,4.82,2.38l.12.09,0,0a0,0,0,0,0,0,0,0,0,0,0,1,0,0,0,0,0,0,1,0,0l3.3,3.89a7.44,7.44,0,0,1,.72,2.8C212,256.07,212,256.21,212,256.34Z"/><path class="cls-2" d="M207.93,249.22a0,0,0,0,1,0,0l0,0Z"/><path class="cls-2" d="M211.25,253.14l-3.3-3.89a0,0,0,0,0,0,0A10.43,10.43,0,0,1,211.25,253.14Z"/><path class="cls-2" d="M203,246.73v121H92v-2.11h8.79V254.22c0-.78,0-1.54-.08-2.27a25.64,25.64,0,0,0-.74-4.83,21.34,21.34,0,0,1,7.72-1.39h88.61A22.2,22.2,0,0,1,203,246.73Z"/><path class="cls-2" d="M100.78,254.22V365.58H92V256.34a5.57,5.57,0,0,1,0-.71.48.48,0,0,1,0-.12,4.79,4.79,0,0,1,.09-.55,2.38,2.38,0,0,1,.05-.26c0-.18.09-.35.14-.53a5.1,5.1,0,0,1,.22-.62,7.8,7.8,0,0,1,.42-.88,4.4,4.4,0,0,1,.29-.51l0,0a4.31,4.31,0,0,1,.3-.44,3.63,3.63,0,0,1,.25-.33c.13-.16.26-.33.4-.49s.3-.32.47-.48a7.44,7.44,0,0,1,.65-.6c.2-.18.42-.35.64-.52a.1.1,0,0,0,.05,0l.67-.46c.21-.15.44-.28.67-.42l.18-.1a7.51,7.51,0,0,1,.69-.37l.66-.32c.34-.15.69-.3,1.05-.43a25.64,25.64,0,0,1,.74,4.83C100.75,252.68,100.78,253.44,100.78,254.22Z"/><path class="cls-2" d="M100.78,254.22V365.58H92V256.34a5.57,5.57,0,0,1,0-.71.48.48,0,0,1,0-.12,4.79,4.79,0,0,1,.09-.55,2.38,2.38,0,0,1,.05-.26c0-.18.09-.35.14-.53a5.1,5.1,0,0,1,.22-.62,7.8,7.8,0,0,1,.42-.88,4.4,4.4,0,0,1,.29-.51l0,0a4.31,4.31,0,0,1,.3-.44,3.63,3.63,0,0,1,.25-.33c.13-.16.26-.33.4-.49s.3-.32.47-.48a7.44,7.44,0,0,1,.65-.6c.2-.18.42-.35.64-.52a.1.1,0,0,0,.05,0l.67-.46c.21-.15.44-.28.67-.42l.18-.1a7.51,7.51,0,0,1,.69-.37l.66-.32c.34-.15.69-.3,1.05-.43a25.64,25.64,0,0,1,.74,4.83C100.75,252.68,100.78,253.44,100.78,254.22Z"/><path class="cls-2" d="M177.05,169.65a23.43,23.43,0,1,1-45.06-9,9.28,9.28,0,0,0,14.13-7.9,8.51,8.51,0,0,0-.09-1.24h0a9.17,9.17,0,0,0-1.24-3.55,23.45,23.45,0,0,1,32.26,21.71Z"/><path class="cls-2" d="M177.05,169.65a23.43,23.43,0,1,1-45.06-9,9.28,9.28,0,0,0,14.13-7.9,8.51,8.51,0,0,0-.09-1.24h0a9.17,9.17,0,0,0-1.24-3.55,23.45,23.45,0,0,1,32.26,21.71Z"/><polygon class="cls-2" points="108.8 320.45 107.17 316.73 107.17 261.89 196.81 261.89 196.81 316.64 195.13 320.45 108.8 320.45"/><rect class="cls-2" x="108.3" y="326.73" width="87.37" height="3.22"/><rect class="cls-2" x="108.3" y="257.81" width="87.37" height="58.57"/><rect class="cls-2" x="108.3" y="339.4" width="87.37" height="3.22"/><rect class="cls-2" x="108.3" y="351.16" width="87.37" height="3.22"/><rect class="cls-2" x="83.24" y="473.39" width="67.16" height="6.75"/><path class="cls-2" d="M153.3,64.79v46.74h-2.62V64.79a6.2,6.2,0,0,0,2.62,0Z"/><path class="cls-2" d="M158.09,58.84a6.09,6.09,0,0,1-4.78,6,6.2,6.2,0,0,1-2.62,0,6.1,6.1,0,1,1,7.4-6Z"/><polygon class="cls-2" points="79.92 313.64 57.57 293.92 54.13 304.35 79.92 313.64"/><polygon class="cls-2" points="79.92 313.64 76.64 364.18 60.26 366.26 54.13 304.35 79.92 313.64"/><polygon class="cls-2" points="78.87 363.9 78.61 367.97 78.37 371.71 57.9 374.31 58.11 371.1 58.41 366.49 60.26 366.26 76.64 364.18 78.87 363.9"/><path class="cls-2" d="M80.21,394.54a4.57,4.57,0,1,1-5.63-7.2,7,7,0,1,0-7.88.54,4.57,4.57,0,0,1-2.61,8.51,4.37,4.37,0,0,1-2-.62,16.16,16.16,0,0,1-4-24.67l-.21,3.21,20.47-2.6.24-3.74a16.16,16.16,0,0,1,1.6,26.57Z"/><polygon class="cls-2" points="211.97 365.54 92 365.54 92 371.07 143.2 371.07 139.98 381.52 163.99 381.52 160.77 371.07 211.97 371.07 211.97 365.54"/><path class="cls-2" d="M138.39,447.34h0a27.17,27.17,0,0,0-15.28-4.67h-5.69v30.72H83.24V470a27.29,27.29,0,0,1,27.32-27.32h12.52A27.18,27.18,0,0,1,138.39,447.34Z"/><path class="cls-2" d="M138.39,447.34a27.56,27.56,0,0,1,3,2.36,27.91,27.91,0,0,0-3-2.36Z"/><path class="cls-2" d="M147.71,458.13q-.59-1.18-1.26-2.31A25.88,25.88,0,0,1,147.71,458.13Z"/><polygon class="cls-2" points="162 384.4 141.84 384.4 139.98 381.52 163.96 381.52 162 384.4"/><path class="cls-2" d="M219.47,470v3.41h-33V442.67h5.7A27.31,27.31,0,0,1,219.47,470Z"/><path class="cls-2" d="M150.4,470v3.4h-33V442.67h5.69a27.17,27.17,0,0,1,15.28,4.67,27.91,27.91,0,0,1,3,2.36c.35.32.68.64,1,1a27.61,27.61,0,0,1,4.05,5.15q.67,1.13,1.26,2.31c.19.41.37.81.55,1.22.34.82.65,1.66.91,2.52A27.19,27.19,0,0,1,150.4,470Z"/><rect class="cls-2" x="117.39" y="473.39" width="33.01" height="0.01"/><path class="cls-2" d="M108.3,316.38"/><polygon class="cls-2" points="93.09 370.18 141.69 370.18 141.57 370.29 93.21 370.29 93.09 370.18"/><polygon class="cls-2" points="210.75 370.18 210.63 370.29 162.27 370.29 162.15 370.18 210.75 370.18"/><path class="cls-2" d="M177.05,169.65a23.43,23.43,0,1,1-45.06-9,9.28,9.28,0,0,0,14.13-7.9,8.51,8.51,0,0,0-.09-1.24h0a9.17,9.17,0,0,0-1.24-3.55,23.45,23.45,0,0,1,32.26,21.71Z"/><path class="cls-2" d="M90,111.23v124H213.94v-124Zm98.62,80-.36.58c-.19.29-.37.58-.56.86a42.82,42.82,0,0,1-17.52,14.87l-.68.3a42,42,0,0,1-17,3.57,42.52,42.52,0,1,1,36.13-20.18Z"/><polygon class="cls-2" points="249.57 305.54 237.26 309.63 223.57 314.19 237.86 302.19 246.4 295.02 247.84 299.82 249.57 305.54"/><polygon class="cls-2" points="249.57 305.54 241.94 367.09 232.51 367.09 232.54 366.87 237.26 309.63 249.57 305.54"/></g><polygon class="cls-3" points="103.37 134.54 14.15 135.42 14.15 133.29 103.37 134.54 103.37 134.54"/><polygon class="cls-3" points="139.48 287.3 1.41 288.36 1.41 286.24 139.48 287.3 139.48 287.3"/><polygon class="cls-3" points="307.3 281.99 220.21 280.93 220.21 280.93 307.3 279.87 307.3 281.99"/><polygon class="cls-3" points="266.94 188.52 164.97 187.6 164.97 187.6 266.94 186.4 266.94 188.52"/><polygon class="cls-3" points="287.98 413.69 173.47 412.65 173.47 412.65 287.98 411.57 287.98 413.69"/><polygon class="cls-3" points="151.61 541.11 150.7 541.1 151.72 0 152.63 0.01 151.61 541.11"/><g class="cls-4"><path class="cls-3" d="M30.66,121.84l-2.28,2.67c-.26.37-.74,1.25-1.27,1.25a1.11,1.11,0,0,1-1.07-.94c0-.61,1.55-2.12,1.86-2.71-1.53.13-2.23-.15-2.23-.9,0-.5.63-1.66,1.22-1.66.15,0,.33.15.5.15s.26-.15,3.59-.79c.83-.81,2.41-2.52,4.33-4.71.28-.31.92-1.07.92-1.51s-.5-.48-.77-.48c-1.16,0-3.92.81-7.51,2.3.15.06.31.13.31.33s-.28.44-.55.52a15.52,15.52,0,0,0-3,1.36,2.11,2.11,0,0,1-.87.31c-.5,0-.66-.61-.66-1a5.27,5.27,0,0,1,.74-2.41c.79-.9,4.44-2.1,5.69-2.49A24.19,24.19,0,0,1,36.09,110c1.82,0,2.36,1.07,2.36,2.15,0,1.36-1.31,2.67-2.19,3.61l-2.47,2.63,3.37-.39,4-5c.26-.35,1.18-1.58,1.64-1.58.28,0,.37.26.37.5,0,.7-.15,1.12-1.79,3.13L39,118a5.79,5.79,0,0,1,3,.55,11.25,11.25,0,0,0-2.63,2.93,7.08,7.08,0,0,0-2.23-.15c-.33.57-1.14,1.6-1.14,2.25a7.18,7.18,0,0,0,.24,1.31c-.7-.15-1.82.92-2.39.72-.37-.13-.5-.44-.39-1.09a11.44,11.44,0,0,1,1.27-3.19Z"/><path class="cls-3" d="M49.63,121.86c-1.33,1.55-3.74,3.61-5.91,3.61-1.6,0-2.34-1.42-2.38-2.87-.09-2.87,3.08-5.8,5.93-5.78.7,0,1.57.17,1.57,1,0,1.07-1.07,2.69-5.27,4.07l0,.48c-.07.83.66,1.12,1.36,1.12,1.55,0,3.39-1.6,4.55-2.52Zm-2.71-3.52c0-.15-.11-.28-.26-.24a4.81,4.81,0,0,0-3,2.78C45.63,120.22,46.94,118.71,46.92,118.34Z"/><path class="cls-3" d="M52.89,123.63c-.42.33-1.82,1.47-2.32,1.47s-1.88-1.44-1.93-2.58c-.09-2.73,5.6-5.54,8.14-5.6a1.34,1.34,0,0,1,1.42,1c0,.26-.57.48-.77.55a.87.87,0,0,1,.63.9c0,.7-1.9,2.23-1.9,3.26,0,.37.33.53.68.53.92,0,2.17-1.12,3.11-1.75l.17.81c-.94,1.07-3.87,3.41-4.94,3.41a1,1,0,0,1-1-1.16,7.37,7.37,0,0,1,.81-2.45l0,0Zm-2.65-.57c0,.11.11.5.44.44s1.12,0,5.45-4.4l0,0C50.87,120.65,50.24,122,50.24,123.06Z"/><path class="cls-3" d="M68.73,118.36c-.72,1.14-1.77,2.56-1.77,4,0,.35,0,1.09.5,1.09.74,0,2.76-1.77,3.46-2.23l.15.72c-1,1.14-3.28,3.43-4.88,3.43-.83,0-1.16-.87-1.16-1.57a10.7,10.7,0,0,1,.17-1.66c-.77.66-2.8,2.78-3.78,2.78s-1.6-2.1-1.6-2.87c0-2.58,4.35-4.77,6.21-4.88.46,0,.63.29.92.61.72-1.25,2.65-5.78,4.24-5.78a.78.78,0,0,1,.7.83,4.9,4.9,0,0,1-.94,2.1Zm-7,4.11a.36.36,0,0,0,.33.42c.26.07,3.79-2.56,4.14-3.85C62.36,120.28,61.88,121,61.75,122.47Z"/></g><g class="cls-4"><path class="cls-3" d="M13.28,275.87c0,1.25-2.69,4.2-8.58,4.53C3.13,280.48.94,280,.94,278c0-.7-.11-.81,2.43-4.16-.61,0-2-.11-2-.85,0-.94,3.06-1,3.72-1.18,1.42-1.38,2.87-3.22,5.05-3.22-.15.37-.31.66-2.12,2.78,4.95-.68,6.1-2.17,6.06-2.76s-.63-1.25-3.17-1.07A26.5,26.5,0,0,0,4.75,269c.13.07.31.15.31.33,0,.33-.5.46-.79.5a15.43,15.43,0,0,0-3,.83,2.25,2.25,0,0,1-.68.15c-.37,0-.55-.22-.55-.59a5.44,5.44,0,0,1,1-1.84,5,5,0,0,1,1.84-1.73A30.39,30.39,0,0,1,11.33,265c3.76,0,4.66,1.49,4.66,2.67,0,3.54-6.63,4.44-9.19,4.94l-.44.39C7.92,273.33,13.28,273.77,13.28,275.87Zm-9.1-.39c-.28.31-.77.79-.77,1.25,0,.94,1.73,1.2,2.43,1.2,1.95,0,5-1.44,5-2.32,0-1.14-4.51-1.47-5.4-1.47Z"/><path class="cls-3" d="M23.28,276.87a4,4,0,0,1-3.54,1.77,4.66,4.66,0,0,1-3.37,1.64c-1.14,0-2.19-1.14-2.28-3.13a4.29,4.29,0,0,1,2-3.68,7.39,7.39,0,0,1,4.09-1.62c.48,0,1.2.2,1.2.79,0,.33-.26.46-.5.59.66.18.79.63.79,1.29a5.83,5.83,0,0,1-.85,2.58c1,.17,1.57-.66,2.25-1.16Zm-6.67-1a3.22,3.22,0,0,0-.9,2c0,.63.42.83,1,.83a2.45,2.45,0,0,0,1.68-.87,2.35,2.35,0,0,1-.26-1,7.78,7.78,0,0,1,.94-2.56A13.29,13.29,0,0,0,16.6,275.84Z"/><path class="cls-3" d="M31.76,273.39C31,274.53,30,276,30,277.35c0,.35,0,1.09.5,1.09.74,0,2.76-1.77,3.46-2.23l.15.72c-1,1.14-3.28,3.43-4.88,3.43-.83,0-1.16-.87-1.16-1.57a10.7,10.7,0,0,1,.17-1.66c-.77.66-2.8,2.78-3.78,2.78s-1.6-2.1-1.6-2.87c0-2.58,4.35-4.77,6.21-4.88.46,0,.63.29.92.61.72-1.25,2.65-5.78,4.24-5.78a.78.78,0,0,1,.7.83,4.91,4.91,0,0,1-.94,2.1Zm-7,4.11a.36.36,0,0,0,.33.42c.26.07,3.79-2.56,4.14-3.85C25.4,275.32,24.92,276.06,24.78,277.51Z"/><path class="cls-3" d="M37.56,283.79c-.22.24-.83,1.09-1.18,1.09s-.66-1.07-.66-1.44a3.72,3.72,0,0,1,.59-1.31l2.93-4.94,0,0a17.94,17.94,0,0,1-3.65,2.67,2.55,2.55,0,0,1-1.73-2.58c-.09-2.63,3.65-5.4,4.27-5.43.33,0,.94.7.94,1,0,.83-2.47,3.11-3.19,3.68a2.36,2.36,0,0,0-.42,1.27,6.21,6.21,0,0,0,3.13-1.93c2.25-2.08,3.65-3.59,4.07-3.66s.59.79.59,1.1a4.71,4.71,0,0,1-.9,1.93L39.07,280l0,0L44,275.74l.18.81Z"/></g><g class="cls-4"><path class="cls-3" d="M242.18,170l0,0c-1.84,1.75-3.65,3.52-5.2,5.27-.64.72-3,3.87-4.11,5.43-.15.22-.42.61-.7.61-.48,0-1.73-.88-1.73-1.38a1.33,1.33,0,0,1,.22-.48c.9-1.38,5.1-8.71,5.1-9.91,0-.28-.07-.46-.35-.46-.74,0-3.15,1.18-6.83,3.61a1.35,1.35,0,0,1-.66.28c-.42,0-.39-.7-.39-1,0-2.63,3.79-5.45,4.44-5.45.11,0,.24.07.24.18s-.11.37-1.18,1.4l0,0c1.55-.85,4.27-2.39,6.08-2.39.74,0,1.47.42,1.4,1.23-.13,1.75-1,3.2-3.81,8.16l0,0c4.2-5.05,6.06-6.87,6.61-7.24s2.3-1.68,2.8-1.68a2.73,2.73,0,0,1,1.79,2.08c0,1.38-2.8,4.2-4.9,8.36a5.14,5.14,0,0,0-.68,1.79c0,.39.09.9.57.9.88,0,3.74-3,4.38-3.74,0,.53.09.79.09,1a.77.77,0,0,1-.24.5c-3.15,4.07-5.45,5.25-6.39,5.25-1.1,0-1.49-1-1.49-1.9a8.38,8.38,0,0,1,1.18-3.63Z"/><path class="cls-3" d="M248.28,179.55c-.42.33-1.82,1.46-2.32,1.46s-1.88-1.44-1.92-2.58c-.09-2.73,5.6-5.53,8.14-5.6a1.34,1.34,0,0,1,1.42,1c0,.26-.57.48-.77.55a.87.87,0,0,1,.63.9c0,.7-1.9,2.23-1.9,3.26,0,.37.33.53.68.53.92,0,2.17-1.12,3.11-1.75l.17.81c-.94,1.07-3.87,3.41-4.94,3.41a1,1,0,0,1-1-1.16,7.33,7.33,0,0,1,.81-2.45l0,0Zm-2.65-.57c0,.11.11.5.44.44s1.12,0,5.45-4.4l0,0C246.26,176.57,245.63,177.91,245.63,179Z"/><path class="cls-3" d="M263.35,172.87c.44,0,.66.28.66.72,0,.88-1.27,2.93-1.82,3.7a.92.92,0,0,0,.74.29,4.27,4.27,0,0,0,1.86-.88l.15.92a3.64,3.64,0,0,1-2.8,1.55,2,2,0,0,1-1.14-.57c-.61.7-2.82,2.63-3.68,2.63-1.29,0-2.17-1.64-2.17-3.3,0-3,2.69-5.12,3.46-5.12.3,0,1.31,0,1.31.5,0,1-2.06,3.19-2.85,3.85a5.61,5.61,0,0,0-.33,1.29c0,.35.09.85.53.85.63,0,2.36-1.6,2.82-2a3.76,3.76,0,0,1,1.09-2.58C261.62,174.14,262.58,172.87,263.35,172.87Z"/></g><g class="cls-4"><path class="cls-3" d="M243.52,407c-.74.79-3.41,3.21-4.42,3.21a.52.52,0,0,1-.52-.55,5,5,0,0,1,1.33-2.19,4.2,4.2,0,0,1,2.28-1.38l2.56-2.71-3.26.26c-.15,0-1.07,0-1.12-.28a1.37,1.37,0,0,1,.57-1.51,10.34,10.34,0,0,1,3-1l3.35-.63c.72-1,2.49-4,2.49-5.05,0-.44-.33-.42-.7-.42a5.68,5.68,0,0,0-1.81.17,31.35,31.35,0,0,0-7.35,2.06l0,0,1.14,0c.15,0,.41,0,.41.2s-.48.33-.66.37l-2.54.79c-1.49.46-1.69.2-1.69-.2a10.72,10.72,0,0,1,1.69-3.35,5.2,5.2,0,0,1,3.3-1.6c5.73-1.31,7.37-1.38,8.66-1.38.79,0,2.25.09,2.25,1.16,0,1.62-2.45,5.91-3.44,7.35l1.47.24-.87,1.4c-.17.28-.31.57-.59.7a9.94,9.94,0,0,1-1.79.41Z"/><path class="cls-3" d="M259.69,403.52a4,4,0,0,1-3.54,1.77,4.66,4.66,0,0,1-3.37,1.64c-1.14,0-2.19-1.14-2.28-3.13a4.3,4.3,0,0,1,2-3.68,7.41,7.41,0,0,1,4.09-1.62c.48,0,1.2.2,1.2.79,0,.33-.26.46-.5.59.66.18.79.64.79,1.29a5.81,5.81,0,0,1-.85,2.58c1,.17,1.57-.66,2.25-1.16Zm-6.67-1a3.22,3.22,0,0,0-.9,2c0,.63.42.83,1,.83a2.45,2.45,0,0,0,1.68-.87,2.38,2.38,0,0,1-.26-1,7.73,7.73,0,0,1,.94-2.56A13.29,13.29,0,0,0,253,402.49Z"/><path class="cls-3" d="M268.35,403.52a4,4,0,0,1-3.54,1.77,4.67,4.67,0,0,1-3.37,1.64c-1.14,0-2.19-1.14-2.28-3.13a4.29,4.29,0,0,1,2-3.68,7.41,7.41,0,0,1,4.09-1.62c.48,0,1.2.2,1.2.79,0,.33-.26.46-.5.59.66.18.79.64.79,1.29a5.83,5.83,0,0,1-.85,2.58c1,.17,1.57-.66,2.25-1.16Zm-6.67-1a3.22,3.22,0,0,0-.9,2c0,.63.42.83,1,.83a2.46,2.46,0,0,0,1.69-.87,2.38,2.38,0,0,1-.26-1,7.77,7.77,0,0,1,.94-2.56A13.28,13.28,0,0,0,261.68,402.49Z"/><path class="cls-3" d="M275.68,397.67c-1,2.08-1.21,2.89-3.61,2.73-.74,1-2,2.76-2,4.07,0,.48.15.77.66.77.7,0,1.49-.66,3.76-2.28l.11,1c-1.29,1.18-3.65,3.52-5.51,3.52a1.33,1.33,0,0,1-1.38-1.46,5.81,5.81,0,0,1,.57-2.19l0,0-1.12.9-.24-.83a12.64,12.64,0,0,0,3.33-3.5,8,8,0,0,0-2.08.09l.24-.39c1.18-1.92,1.36-2.27,3.7-2.36.66-.9,1.14-1.92,2.41-1.92.29,0,.7.07.7.42s-.63,1.12-.85,1.42Z"/><path class="cls-3" d="M282.59,403.54c-1.34,1.55-3.74,3.61-5.91,3.61-1.6,0-2.34-1.42-2.38-2.87-.09-2.87,3.08-5.8,5.93-5.78.7,0,1.57.17,1.57,1,0,1.07-1.07,2.69-5.27,4.07l0,.48c-.07.83.65,1.12,1.36,1.12,1.55,0,3.39-1.6,4.55-2.52ZM279.88,400c0-.15-.11-.28-.26-.24a4.82,4.82,0,0,0-3,2.78C278.59,401.9,279.9,400.39,279.88,400Z"/><path class="cls-3" d="M283.81,402a15.42,15.42,0,0,1-2.62,2.71l-.09-1a7.64,7.64,0,0,0,1.44-1.6c-.46,0-.59-.22-.59-.68,0-1.57,2.23-3.15,2.76-3.15a.39.39,0,0,1,.39.37,1.45,1.45,0,0,1-.15.61c2.06-.28,3.26-.55,3.48-.28a2.2,2.2,0,0,1,.53,1.16c0,.68-.42,1-.92,1.42s-1.71,1.62-1.71,2.5a.67.67,0,0,0,.68.61c.94,0,2.32-1.42,3-2l.15.81c-.83.94-3.35,3.37-4.59,3.37a1.59,1.59,0,0,1-1.49-1.68c0-1.49,1.14-2.65,2-3.7l0,0Z"/></g><path class="cls-3" d="M260.11,268c2.08.49,3,1.58,3,2.59,0,4.1-7.18,4.75-10.15,4.75-.8,0-3.31,0-3.31-1.19a4.34,4.34,0,0,1,1-1.83,5.47,5.47,0,0,1,1.77-.6c.1,0,.17,0,.17.14s-.21.31-.35.39a2.36,2.36,0,0,0-.35.31v0c7.35.27,9.37-1.85,9.37-2.18,0-1-5.7-1.87-6.69-2s-2.1-.49-2.1-1.73a7.62,7.62,0,0,1,.66-2.74c.64-1,4.36-3,8.87-3a12.37,12.37,0,0,1,2.59.29c.47.1.54.27.54.68,0,1.52-.51,1.87-1.73,2.35a5.83,5.83,0,0,0-1.85,1,1.24,1.24,0,0,1-.51.21.29.29,0,0,1-.33-.31,4.59,4.59,0,0,1,1.5-1.44l0,0c-5.31.19-7.59,2.1-7.62,2.57C254.64,266.56,254.37,266.7,260.11,268Z"/><path class="cls-3" d="M271.86,272c-1.26,1.46-3.52,3.4-5.56,3.4-1.5,0-2.2-1.34-2.24-2.7-.08-2.7,2.9-5.45,5.58-5.43.66,0,1.48.16,1.48,1,0,1-1,2.53-5,3.83l0,.45c-.06.78.62,1,1.28,1,1.46,0,3.19-1.5,4.28-2.37Zm-2.55-3.31c0-.14-.1-.27-.25-.23a4.52,4.52,0,0,0-2.78,2.61C268.1,270.47,269.33,269,269.31,268.7Z"/><path class="cls-3" d="M273.84,271.21c-.45.33-.82.64-.82,1.21s.49,1.11,1.56,1.11c1.56,0,3.36-1.44,4.55-2.37l.25.8c-1.26,1.34-3.56,3.38-5.52,3.38-1.58,0-2.35-1.48-2.35-3,0-1.73.62-2.37,2-3.38a9.12,9.12,0,0,1,4.05-1.81.82.82,0,0,1,.93.95,3.71,3.71,0,0,1-2.18,2.72c-.47,0-.68-.51-.7-.91Z"/><path class="cls-3" d="M286.1,266.49c-1,2-1.13,2.72-3.4,2.57-.7.91-1.87,2.59-1.87,3.83,0,.45.14.72.62.72.66,0,1.4-.62,3.54-2.14l.1.91c-1.21,1.11-3.44,3.31-5.19,3.31a1.26,1.26,0,0,1-1.3-1.38,5.44,5.44,0,0,1,.54-2.06l0,0-1,.84-.23-.78A11.89,11.89,0,0,0,281,269a7.46,7.46,0,0,0-2,.08l.23-.37c1.11-1.81,1.28-2.14,3.48-2.22.62-.84,1.07-1.81,2.26-1.81.27,0,.66.06.66.39s-.6,1-.8,1.34Z"/><path class="cls-3" d="M290.77,272.4c-.93,1.13-2.74,3-4.3,3-1.21,0-1.77-1.4-1.77-2.45,0-2.51,2.57-5,3.81-5,.35,0,.9.12.9.58,0,1-2,2.86-2.9,3.46-.16.84.14,1.3,1.09,1.3s2.16-1.09,3-1.69Zm-2-5.72a1.86,1.86,0,0,1,1.79-1.58.65.65,0,0,1,.68.64,1.9,1.9,0,0,1-1.65,1.83A.83.83,0,0,1,288.79,266.68Z"/><path class="cls-3" d="M299.09,272a3.79,3.79,0,0,1-3.34,1.67,4.39,4.39,0,0,1-3.17,1.54c-1.07,0-2.06-1.07-2.14-2.94a4,4,0,0,1,1.87-3.46,7,7,0,0,1,3.85-1.52c.45,0,1.13.19,1.13.74,0,.31-.25.43-.47.56.62.16.74.6.74,1.21a5.48,5.48,0,0,1-.8,2.43c.9.17,1.48-.62,2.12-1.09Zm-6.28-1a3,3,0,0,0-.84,1.89c0,.6.39.78.91.78a2.31,2.31,0,0,0,1.58-.82,2.22,2.22,0,0,1-.25-.95,7.28,7.28,0,0,1,.88-2.41A12.49,12.49,0,0,0,292.81,271Z"/><path class="cls-3" d="M308.47,271l.16.91c-1.09,1-3.21,3.5-4.71,3.5a1.21,1.21,0,0,1-1.15-1.36c0-1.23,1.11-2.59,1.77-3.54l0,0a16.35,16.35,0,0,0-3.17,3.15c-.31.39-1.07,1.4-1.63,1.4-.91,0-1.13-1.3-1.15-2-.06-1.42,1.23-3.5,2.43-4.51a1,1,0,0,1,.8-.25c1.24,0,1.13.33,1.13.45,0,.8-2.59,2.88-2.59,3.38a.23.23,0,0,0,.23.23c.14,0,.33-.19.41-.29,1.65-2.1,5.43-4.63,6-4.63.08,0,.21.1.33.39a4.75,4.75,0,0,1,.31,1.11c0,.8-2.53,2.37-2.53,3.79a.38.38,0,0,0,.37.37,4.3,4.3,0,0,0,1.77-1Z"/></g></g></svg>