<?xml version="1.0" encoding="utf-8"?>
<!-- Generator: Adobe Illustrator 21.1.0, SVG Export Plug-In . SVG Version: 6.00 Build 0)  -->
<svg version="1.1" id="Capa_1" xmlns="http://www.w3.org/2000/svg" xmlns:xlink="http://www.w3.org/1999/xlink" x="0px" y="0px"
	 viewBox="0 0 289.5 391.2" style="enable-background:new 0 0 289.5 391.2;" xml:space="preserve">
<style type="text/css">
	.st0{fill:none;stroke:#19916E;stroke-miterlimit:10;}
	.st1{fill:none;stroke:#BF3915;stroke-miterlimit:10;}
	.st2{fill:none;stroke:#34537D;stroke-miterlimit:10;}
	.st3{fill:#A7A7A6;}
	.st4{fill:#3C5FA2;}
	.st5{fill:#4E4D4D;}
	.st6{fill:#777676;}
	.st7{fill:#34537D;}
	.st8{fill:#010002;}
	.st9{fill:#D3D3D3;}
	.st10{fill:#FFFFFF;}
	.st11{fill:#5D5D5D;}
</style>
<title>bot-build</title>
<g id="Capa_2">
	<g id="Capa_1-2">
		<path class="st0" d="M251.1,242.1c0,0,4.3,1.9,3.2-17.5"/>
		<path class="st0" d="M264.3,248.6c0,0,4.3,1.9,3.2-17.5"/>
		<path class="st1" d="M252.2,242c0,0,2.6,5.4,9.8-10.9"/>
		<path class="st0" d="M273.2,246.9c0,0,3.2,4.7,8.5-13.1"/>
		<path class="st1" d="M274.2,247.6c0,0,0.5,6.6,12.2-2.7"/>
		<path class="st2" d="M273.1,248.6c0,0,4.3,1.9,3.2-17.5"/>
		<path class="st0" d="M106.1,347.5c0,0-4.3-1.9-3.2,17.5"/>
		<path class="st0" d="M92.9,341.1c0,0-4.3-1.9-3.2,17.5"/>
		<path class="st1" d="M105,347.6c0,0-2.6-5.4-9.8,11"/>
		<path class="st0" d="M84,342.7c0,0-3.2-4.7-8.5,13.1"/>
		<path class="st2" d="M84.1,341.1c0,0-4.3-1.9-3.2,17.5"/>
		<path class="st0" d="M42.5,90.6c0,0,4.3,1.9,3.2-17.5"/>
		<path class="st0" d="M55.7,97.1c0,0,4.3,1.9,3.2-17.5"/>
		<path class="st1" d="M43.7,90.5c0,0,2.6,5.4,9.8-11"/>
		<path class="st0" d="M64.6,95.4c0,0,3.2,4.7,8.5-13.1"/>
		<path class="st1" d="M65.6,96.1c0,0,0.6,6.6,12.2-2.7"/>
		<path class="st2" d="M64.5,97.1c0,0,4.3,1.9,3.2-17.5"/>
		<path class="st3" d="M217.8,198.4l-8.2,6.9l-13.8,11.6l-11.2-11.8l-15.3-16l-0.5-0.5l-13.1-13.7l7.9-6.6l5.2-4.4l11.7-9.8l0,0
			l0.1,0.2l0,0l3.2,3.8l0,0L217.8,198.4z"/>
		<polygon class="st4" points="220.9,208.6 213.5,268 213.1,271.7 213,271.7 210.6,271.3 204.2,270.4 197.9,269.4 197.9,268 
			197.8,266.5 195.8,216.9 209,212.5 		"/>
		<polygon class="st5" points="214.8,269.5 214.8,277.1 205.6,275.3 195.2,273.3 195.2,265.8 199.5,266.6 206.2,267.9 		"/>
		<path class="st5" d="M217.9,285.5c-0.7,5.2-3.8,9.7-8.5,12c-0.6,0.3-1.3,0.5-2,0.5c-2.4,0-4.4-2-4.4-4.4c0-1.7,0.9-3.2,2.4-4
			c2.7-1.3,4.2-4.3,3.6-7.3c-0.2-1.1-0.6-2.1-1.3-2.9c-1.1-1.4-2.7-2.4-4.5-2.6c-3.7-0.5-7.1,2.2-7.6,5.9c-0.3,2.2,0.5,4.4,2.2,5.9
			c1.9,1.6,2.1,4.4,0.5,6.2c-1.6,1.9-4.4,2.1-6.2,0.5c-0.1-0.1-0.1-0.1-0.2-0.2c-6.4-5.7-7-15.6-1.3-22c1.3-1.4,2.8-2.6,4.5-3.5
			c1.4-0.7,2.8-1.2,4.4-1.5c1.6-0.3,3.2-0.3,4.8-0.1c0.6,0.1,1.2,0.2,1.7,0.3c2.3,0.5,4.4,1.6,6.2,3.1c0.9,0.7,1.7,1.6,2.5,2.5
			c2,2.6,3.1,5.7,3.3,9C218,283.8,218,284.7,217.9,285.5z"/>
		<polygon class="st3" points="287.8,260.2 280.7,261.9 285.1,271.1 285.2,271.4 277.6,276.1 277.3,276.3 281.8,285.9 281.6,286 
			273.4,290.7 273.4,290.7 278.7,299.4 271.5,304.4 270.7,305 275.1,314.8 266.8,319.3 266.8,319.5 271.6,329.4 271.7,329.6 
			263.4,333.7 263.7,334.2 268.6,343.1 268.1,343.4 259.5,348 259.6,348.1 266,354.2 265,358.5 219.1,347.9 220,343.6 228.5,340.9 
			228.6,340.9 222.9,333 222.6,332.5 230.9,326.6 231.4,326.3 225.8,319 225.9,318.8 234.6,312 234.7,311.9 229.2,304.1 
			237.5,297.3 237,296.4 232.8,288.7 241.3,283.3 241.4,283.3 236,275.4 235.9,275.3 244.1,268.6 243.9,268.3 239.2,260.7 
			239.4,260.6 247.4,254.3 241.8,249.6 243.6,241.9 289.5,252.5 		"/>
		<polygon class="st6" points="285.2,271.4 277.6,276.1 243.9,268.3 239.2,260.7 239.4,260.6 285.1,271.1 		"/>
		<polygon class="st6" points="273.4,290.7 273.4,290.7 241.3,283.3 241.4,283.3 236,275.4 281.6,286 		"/>
		<polygon class="st6" points="278.7,299.4 271.5,304.4 237,296.4 232.8,288.7 		"/>
		<polygon class="st6" points="266.8,319.3 266.8,319.5 234.6,312 234.7,311.9 229.2,304.1 275.1,314.8 		"/>
		<polygon class="st6" points="263.4,333.7 263.7,334.2 230.9,326.6 231.4,326.3 225.8,319 225.9,318.8 271.6,329.4 271.7,329.6 		
			"/>
		<polygon class="st6" points="259.5,348 259.6,348.1 228.5,340.9 228.6,340.9 222.9,333 268.1,343.4 		"/>
		
			<rect x="231.8" y="348.3" transform="matrix(0.2256 -0.9742 0.9742 0.2256 -188.8464 523.8399)" class="st5" width="6.5" height="64.8"/>
		<path class="st4" d="M243.1,348.8l-6.7,28.9l-32.1-7.4l0.7-3.3c3.3-14.2,17.4-23,31.6-19.7c0,0,0,0,0,0L243.1,348.8z"/>
		<polygon class="st3" points="117,244.4 110.4,247.7 116.8,255.7 117,255.9 110.7,262.2 110.4,262.5 117,270.8 116.8,270.9 
			109.8,277.4 109.9,277.4 117,284.6 111.2,291.1 110.4,291.9 117,300.4 109.8,306.8 110,306.9 116.8,315.5 117,315.7 109.8,321.5 
			110.3,321.9 117,329.6 116.6,329.9 109.2,336.4 109.4,336.4 117,341 117,345.3 69.8,345.3 69.8,341 77.4,336.4 77.6,336.4 
			70.2,329.9 69.8,329.6 76.6,321.9 77,321.5 69.8,315.7 70,315.5 76.8,306.9 77,306.8 69.8,300.4 76.4,291.9 75.7,291.1 
			69.8,284.6 76.9,277.4 77,277.4 70,270.9 69.8,270.8 76.4,262.5 76.1,262.2 69.8,255.9 70,255.7 76.4,247.7 69.8,244.4 
			69.8,236.5 117,236.5 		"/>
		<polygon class="st6" points="117,255.9 110.7,262.2 76.1,262.2 69.8,255.9 70,255.7 116.8,255.7 		"/>
		<polygon class="st6" points="109.8,277.4 109.9,277.4 76.9,277.4 77,277.4 70,270.9 116.8,270.9 		"/>
		<polygon class="st6" points="117,284.6 111.2,291.1 75.7,291.1 69.8,284.6 		"/>
		<polygon class="st6" points="109.8,306.8 110,306.9 76.8,306.9 77,306.8 69.8,300.4 117,300.4 		"/>
		<polygon class="st6" points="109.8,321.5 110.3,321.9 76.6,321.9 77,321.5 69.8,315.7 70,315.5 116.8,315.5 117,315.7 		"/>
		<polygon class="st6" points="109.2,336.4 109.4,336.4 77.4,336.4 77.6,336.4 70.2,329.9 116.6,329.9 		"/>
		<rect x="106.1" y="143.1" class="st5" width="42.2" height="13.7"/>
		<polygon class="st3" points="25.4,144.7 2.7,127.1 38.1,81.3 63.7,101.1 		"/>
		<path class="st4" d="M184.6,161.1v107.4H68.9V161.1c0-3.8,3.1-7.2,7.7-8.9c2.4-0.9,4.9-1.4,7.4-1.3h85.5c2.2,0,4.4,0.3,6.4,1
			C181.1,153.5,184.6,157,184.6,161.1z"/>
		<path class="st7" d="M184.6,161.1c0-4.1-3.6-7.6-8.7-9.3v-1h5.6C183.2,150.9,184.6,155.5,184.6,161.1z"/>
		<path class="st7" d="M184.6,161.1v107.4h-8.7V151.9C181.1,153.5,184.6,157,184.6,161.1z"/>
		<path class="st7" d="M77.4,159.1v107.4h-8.5V161.1c0-3.8,3.1-7.2,7.7-8.9C77.1,154.5,77.4,156.8,77.4,159.1z"/>
		<polygon class="st7" points="85.1,223 83.6,219.4 83.6,166.5 170,166.5 170,219.3 168.4,223 		"/>
		<rect x="84.6" y="229" class="st5" width="84.3" height="3.1"/>
		<rect x="84.6" y="162.6" class="st5" width="84.3" height="56.5"/>
		<rect x="84.6" y="241.2" class="st5" width="84.3" height="3.1"/>
		<rect x="84.6" y="252.6" class="st5" width="84.3" height="3.1"/>
		<rect x="123.4" y="375.1" class="st5" width="64.8" height="6.5"/>
		
			<rect x="249.9" y="146" transform="matrix(0.851 -0.5252 0.5252 0.851 -52.5889 157.4245)" class="st5" width="2.5" height="50.8"/>
		<circle class="st4" cx="237.8" cy="149.7" r="5.9"/>
		<polygon class="st5" points="25.4,144.7 2.7,127.1 0,137.4 		"/>
		<polygon class="st4" points="0,137.4 10.4,200.1 25.4,197.2 25.4,144.7 		"/>
		<polygon class="st5" points="31.8,233 20.9,249.6 15.4,244.3 26.4,227.8 		"/>
		<path class="st5" d="M40.9,259c-0.5,0.5-1.1,0.9-1.7,1.1c-8.1,2.8-17-1.5-19.8-9.7s1.5-17,9.7-19.8c8.1-2.8,17,1.5,19.8,9.7
			c0.6,1.9,0.9,3.9,0.8,5.8c-0.1,2.4-2.1,4.3-4.6,4.2s-4.3-2.1-4.2-4.6c0,0,0-0.1,0-0.1c0.2-3.7-2.7-6.9-6.5-7.1
			c-2.2-0.1-4.4,0.9-5.7,2.7c-2.3,3-1.7,7.2,1.3,9.5c0,0,0,0,0,0c1.8,1.4,4.2,1.7,6.3,1c2.3-0.8,4.8,0.5,5.6,2.8
			C42.4,256.1,42,257.8,40.9,259z"/>
		<polygon class="st3" points="184.6,266.5 68.9,266.5 68.9,271.8 118.3,271.8 115.2,281.9 138.3,281.9 135.2,271.8 184.6,271.8 		
			"/>
		<path class="st4" d="M188.2,371.9v3.3h-64.8v-3.3c0-14.5,11.8-26.3,26.3-26.4c0,0,0,0,0,0h12.1
			C176.4,345.5,188.2,357.3,188.2,371.9C188.2,371.8,188.2,371.8,188.2,371.9z"/>
		<polygon class="st6" points="136.4,284.6 117,284.6 115.2,281.9 138.3,281.9 		"/>
		<path class="st7" d="M268.1,381.6l-0.8,3.2l-31-7.2l6.6-28.9l5.4,1.2C262.6,353.3,271.4,367.4,268.1,381.6
			C268.1,381.6,268.1,381.6,268.1,381.6z"/>
		<path class="st8" d="M84.6,219"/>
		<rect x="154.8" class="st4" width="119.5" height="119.5"/>
		<polygon class="st7" points="266.7,126.2 160.4,126.2 154.8,119.6 274.7,119.6 		"/>
		<path class="st9" d="M252,58.9c0,21.7-17.6,39.3-39.3,39.3c-11.3,0-22-4.8-29.4-13.2c16.2,14.4,41.1,13,55.5-3.2
			c13.3-14.9,13.3-37.4,0-52.3C247.2,36.9,252,47.7,252,58.9"/>
		<path class="st10" d="M248.7,55.7c0,21.7-17.6,39.3-39.3,39.3c-9.6,0-18.9-3.5-26.1-10c-14.4-16.2-12.9-41.1,3.3-55.5
			c14.9-13.2,37.3-13.2,52.2,0C245.2,36.7,248.8,46,248.7,55.7"/>
		<path class="st8" d="M235.3,58.3c0,12.5-10.1,22.6-22.6,22.6c-12.5,0-22.6-10.1-22.6-22.6s10.1-22.6,22.6-22.6c0,0,0,0,0,0
			C225.1,35.7,235.3,45.9,235.3,58.3"/>
		<path class="st10" d="M205.4,42c0,4.9-4,8.9-8.9,8.9c-4.9,0-8.9-4-8.9-9c0-4.9,4-8.9,8.9-8.9C201.4,33,205.4,37.1,205.4,42"/>
		<polygon class="st5" points="220.9,208.6 209,212.5 195.8,216.9 209.6,205.4 217.8,198.4 219.2,203.1 		"/>
		<polygon class="st7" points="220.9,208.6 213.5,268 204.4,268 204.4,267.7 209,212.5 		"/>
		<path id="engrane2" class="st11" d="M60,317.8c-0.4,1-0.8,2-1.1,3c-0.3,1.2-1.3,2.2-2.5,2.3c-0.5,0-0.9,0-1.4-0.2
			c-0.7-0.2-1.3-0.5-2-0.7c-0.2-0.1-0.4,0-0.5,0.2c-1,1.1-2,2.2-3,3.3c-0.2,0.2-0.3,0.5-0.1,0.7c0.4,0.7,0.7,1.4,0.9,2.1
			c0.5,1.3-0.1,2.9-1.4,3.5c-1,0.5-2,1-3,1.4c-1.5,0.6-3.1,0-3.8-1.5c0,0,0,0,0,0c-0.3-0.6-0.6-1.2-0.8-1.8
			c-0.1-0.2-0.3-0.4-0.5-0.3c0,0,0,0,0,0c-1.5,0.3-3,0.3-4.4,0.2c-0.4,0-0.5,0.1-0.6,0.4c-0.3,0.7-0.5,1.4-0.8,2.1
			c-0.6,1.4-2.3,2.1-3.7,1.5c0,0,0,0,0,0l-2.7-1c-1.5-0.5-2.3-2.1-1.8-3.6c0,0,0-0.1,0-0.1c0.2-0.7,0.5-1.4,0.8-2
			c0.1-0.2,0-0.5-0.2-0.6c-1.2-1-2.4-2.1-3.7-3.3L22,324c-0.8,0.5-1.8,0.6-2.7,0.4c-0.8-0.2-1.4-0.8-1.7-1.5
			c-0.4-0.9-0.9-1.8-1.3-2.8c-0.7-1.4-0.2-3.2,1.2-3.9c0.1-0.1,0.2-0.1,0.3-0.2c0.6-0.3,1.1-0.5,1.7-0.8c0.2-0.1,0.3-0.3,0.3-0.5
			c0-1.5-0.1-3-0.1-4.6c0-0.2-0.1-0.4-0.4-0.5l-1.9-0.7c-1.5-0.5-2.4-2.1-1.9-3.6c0-0.1,0.1-0.2,0.1-0.3c0.3-0.9,0.7-1.7,1-2.6
			c0.5-1.5,2.1-2.4,3.7-1.9c0,0,0.1,0,0.1,0c0.7,0.2,1.3,0.5,2,0.7c0.3,0.1,0.4,0,0.6-0.2c1-1.1,2-2.2,3-3.3
			c0.2-0.2,0.3-0.5,0.1-0.7c-0.3-0.7-0.7-1.4-1-2.2c-0.5-1.4,0.1-2.9,1.5-3.5c0.9-0.4,1.8-0.9,2.7-1.3c1.4-0.7,3.1-0.2,3.9,1.2
			c0.1,0.1,0.1,0.3,0.2,0.4c0.2,0.6,0.5,1.1,0.8,1.6c0.1,0.2,0.3,0.2,0.5,0.3c1.5,0,3-0.1,4.6-0.2c0.2,0,0.4-0.1,0.5-0.3
			c0.3-0.6,0.5-1.2,0.7-1.9c0.5-1.5,2.2-2.4,3.7-1.9c0,0,0.1,0,0.1,0c1,0.4,2,0.7,3,1.1c1.4,0.5,2.2,2.1,1.6,3.6
			c-0.2,0.7-0.5,1.4-0.8,2.1c-0.1,0.3,0,0.4,0.2,0.6c1.1,1,2.2,2,3.3,3c0.2,0.2,0.5,0.3,0.7,0.1c0.6-0.3,1.1-0.5,1.7-0.8
			c1.4-0.8,3.1-0.2,3.9,1.2c0,0.1,0.1,0.2,0.1,0.2c0.4,0.9,0.9,1.8,1.3,2.7c0.7,1.4,0.2,3.1-1.2,3.8c-0.1,0-0.1,0.1-0.2,0.1
			c-0.6,0.3-1.3,0.6-1.9,0.9c-0.1,0.1-0.2,0.2-0.3,0.3c0.1,1.7,0.2,3.3,0.3,5.1l2.2,0.8c0.8,0.3,1.5,1,1.7,1.8
			c0,0.1,0.1,0.2,0.1,0.3C60,317.1,60,317.5,60,317.8z M37.7,323.1c6.2,0,11.3-5,11.3-11.2c0-6.2-5-11.3-11.2-11.3
			c-6,0-11,4.7-11.3,10.7c-0.3,6.2,4.4,11.5,10.6,11.8C37.3,323.1,37.5,323.1,37.7,323.1z"/>
		<path id="engrane" class="st11" d="M74.7,79l1.4-3.7c1-2.6,2.9-3.4,5.5-2.3c2.2,0.9,2.1,0.9,3.6-0.9c0.8-0.9,1.6-1.8,2.6-2.6
			c0.4-0.3,0.5-0.9,0.2-1.3c-0.4-0.7-0.7-1.5-1-2.3c-0.7-1.7,0-3.6,1.7-4.5c1.3-0.7,2.6-1.3,4-1.8c1.7-0.7,3.7,0,4.5,1.7
			c0.4,0.7,0.7,1.5,1.1,2.2c0.2,0.3,0.6,0.5,1,0.6c1.7,0,3.4-0.1,5.1-0.1c0.5,0,0.9-0.3,1.1-0.8c0.3-0.9,0.6-1.7,1-2.5
			c0.8-1.6,2.6-2.4,4.3-1.8c1.2,0.4,2.4,0.8,3.6,1.3c1.9,0.6,2.9,2.6,2.3,4.5c-0.1,0.2-0.1,0.3-0.2,0.5c-1,2.6-1,2.6,1.2,4.3
			c0.7,0.6,1.4,1.3,2,2c0.3,0.6,1,0.8,1.6,0.4c0.1,0,0.1-0.1,0.2-0.1c0.7-0.4,1.4-0.7,2.1-0.9c1.7-0.7,3.7,0.1,4.5,1.8
			c0.6,1.1,1.1,2.3,1.6,3.4c0.9,2.2,0.4,4.2-1.9,5.1s-3,2-2.3,4.2c0.2,0.9,0.2,1.9,0,2.8c-0.1,0.5,0.2,1.1,0.8,1.2c0,0,0,0,0.1,0
			c0.8,0.2,1.6,0.6,2.4,0.9c1.7,0.7,2.5,2.7,1.8,4.4c-0.4,1.3-0.9,2.6-1.4,3.8c-0.7,1.8-2.7,2.8-4.5,2.1c-0.1,0-0.1,0-0.2-0.1
			c-0.9-0.3-2-1-2.8-0.8s-1.3,1.4-1.9,2.1c-0.6,0.7-1.3,1.3-2,1.9c-0.4,0.3-0.6,0.8-0.3,1.2c0,0,0,0,0,0c0.4,0.8,0.8,1.6,1.1,2.5
			c0.7,1.7-0.1,3.6-1.7,4.4c-1.2,0.6-2.4,1.2-3.6,1.7c-1.8,0.9-4,0.2-4.9-1.6c-0.1-0.1-0.1-0.3-0.2-0.4c-1.1-2.5-1.1-2.5-3.8-2.2
			c-1,0.1-2.1,0.1-3.1,0c-0.5-0.1-1,0.2-1.1,0.7c-0.3,0.9-0.6,1.7-1,2.5c-0.7,1.6-2.5,2.4-4.2,1.9c-1.5-0.4-2.9-1-4.3-1.6
			c-1.7-0.7-2.5-2.7-1.9-4.4c0.3-0.8,0.6-1.6,0.8-2.3c0.1-0.4,0-0.7-0.3-1c-1.3-1.2-2.6-2.4-3.9-3.6c-0.3-0.2-0.7-0.3-1.1-0.2
			c-0.8,0.3-1.6,0.8-2.5,1.1c-1.7,0.7-3.7-0.1-4.5-1.8c-0.6-1.2-1.2-2.4-1.7-3.7c-0.8-1.8,0-3.9,1.8-4.7c0.1,0,0.1-0.1,0.2-0.1
			c0.8-0.4,2-0.6,2.4-1.3S80,89,79.9,88.1c-0.1-0.9-0.1-1.8,0-2.7c0.1-0.8-0.1-1.2-0.9-1.4c-0.6-0.2-1.2-0.4-1.8-0.7
			c-1.2-0.5-2.1-1.4-2.5-2.6C74.7,80.1,74.7,79.6,74.7,79z M102.5,100.9c7.4,0.3,14-6,14.3-13.5c0.4-7.8-5.7-14.5-13.5-14.8
			c-7.8-0.4-14.5,5.7-14.8,13.5c-0.4,7.8,5.7,14.5,13.5,14.8C102.1,100.9,102.3,100.9,102.5,100.9z"/>
		<path class="st10 st11-d" d="M138.4,178c0,0.2,0,0.4-0.1,0.6c-0.1,0.6-0.6,1.4-0.4,1.7c0.7,0.9,1.5,1.6,2.4,2.3c0.2,0.1,0.6,0,0.9-0.2
			c2-0.9,2.9-0.6,3.8,1.5c0.2,0.4,0.4,0.8,0.5,1.3c0.4,1,0,2.1-1,2.6c-0.1,0-0.1,0-0.2,0.1c-1,0.4-1.6,0.9-1.2,2.1
			c0,0.1,0,0.1,0,0.2c-0.3,1.4,0.2,2.4,1.7,2.8c0.3,0.1,0.6,0.3,0.7,0.6c1.1,1.6-0.1,3-0.6,4.4c-0.3,0.8-1.4,1.1-2.5,0.8
			c-0.3-0.1-0.6-0.2-0.9-0.3c-0.4,0-0.7,0.1-1,0.3c-0.5,0.4-0.8,1.1-1.3,1.4c-0.7,0.6-0.6,1-0.3,1.8c0.9,1.7,0.5,2.6-1.3,3.4
			l-0.8,0.4c-1.8,0.9-2.8,0.6-3.6-1.3c-0.3-0.8-0.7-1.1-1.6-0.9c-0.1,0-0.1,0-0.2,0c-1.6-0.3-2.9,0.2-3.3,2
			c-0.1,0.2-0.2,0.3-0.3,0.4c-0.9,0.8-2.3,0.5-4.4-0.6c-0.9-0.5-1.3-1.6-0.8-2.6c0-0.1,0.1-0.1,0.1-0.2c0.4-1,0.4-1.6-0.6-2.1
			c-0.1,0-0.2-0.1-0.2-0.2c-0.5-1.1-1.9-1.5-2.9-0.9c-0.1,0.1-0.2,0.1-0.3,0.2c-0.9,0.4-2,0-2.4-0.9c0-0.1-0.1-0.1-0.1-0.2
			c-0.1-0.3-0.3-0.5-0.4-0.8c-1.2-2.5-1-3,1.5-4.3c0.3-0.1,0.4-0.6,0.5-1c0-0.1-0.1-0.3-0.1-0.5c0.1-1.6,0-2.9-2-3.3
			c-0.4-0.1-0.9-1.2-0.9-1.7c0.2-1.2,0.6-2.3,1.2-3.3c0.6-0.8,1.7-1,2.5-0.4c1,0.5,1.5,0,2.2-0.6c1.1-1.1,1.7-2,0.8-3.6
			c-0.4-0.8,0-1.7,0.8-2.1c0,0,0,0,0.1,0c0.8-0.4,1.5-0.8,2.3-1.1c0.9-0.4,2,0,2.4,0.9c0,0.1,0.1,0.2,0.1,0.3c0.2,0.9,1.1,1.5,2,1.3
			c0.1,0,0.2-0.1,0.4-0.1c0.1,0,0.1,0,0.2,0c0.9,0.3,2-0.1,2.3-1.1c0.1-0.2,0.1-0.3,0.1-0.5c0.3-1,1.3-1.5,2.3-1.3c0,0,0,0,0.1,0
			c0.9,0.2,1.7,0.6,2.5,1c0.5,0.4,0.9,0.9,1.2,1.5L138.4,178z M122.7,190.7c-0.1,4.3,3.4,7.9,7.8,8c4.3,0.1,7.9-3.4,8-7.8
			s-3.4-7.9-7.8-8C126.3,182.9,122.7,186.3,122.7,190.7z"/>
	</g>
</g>
<style>
	@keyframes spin{
		0%{
			transform: rotate(0deg)
		}
		100%{
			transform: rotate(360deg)
		}
	}
	.st11, .st11, .st11-d{
		animation: spin 3s linear 0ms infinite;
	}
	#engrane{
		transform-origin: 36% 22%;
    	
	}
	.st11-d{
		transform-origin: 45% 49%;
		
		
	}
	#engrane2{
		transform-origin: 13% 80%;
    	
	}
</style>
</svg>
